<?xml version="1.0" standalone="no"?>
<!DOCTYPE svg PUBLIC "-//W3C//DTD SVG 20010904//EN"
 "http://www.w3.org/TR/2001/REC-SVG-20010904/DTD/svg10.dtd">
<svg version="1.0" xmlns="http://www.w3.org/2000/svg"
 width="1308.000000pt" height="1308.000000pt" viewBox="0 0 1308.000000 1308.000000"
 preserveAspectRatio="xMidYMid meet">
<metadata>
Created by potrace 1.14, written by Peter Selinger 2001-2017
</metadata>
<g transform="translate(0.000000,1308.000000) scale(0.100000,-0.100000)"
fill="#000000" stroke="none">
<path d="M7651 11348 c-10 -15 -16 -19 -19 -10 -3 10 -7 10 -20 0 -12 -10 -14
-10 -8 0 4 6 3 12 -3 12 -5 0 -12 -4 -15 -9 -3 -4 -18 -7 -33 -5 -76 11 -92
11 -87 3 3 -5 0 -9 -5 -9 -6 0 -11 4 -11 10 0 14 -40 6 -51 -11 -7 -12 -9 -12
-10 1 -1 8 -1 19 1 25 1 5 -8 1 -19 -9 -12 -11 -21 -14 -21 -8 0 7 -5 12 -11
12 -5 0 -7 -6 -3 -12 5 -8 0 -7 -11 2 -10 8 -16 10 -12 4 4 -7 0 -14 -8 -17
-10 -4 -12 -1 -8 11 6 14 4 15 -8 5 -11 -9 -19 -9 -26 -2 -8 8 -13 7 -18 -2
-6 -8 -4 -10 5 -4 8 5 11 4 6 -3 -5 -9 -65 -6 -75 4 -2 2 -9 -4 -16 -13 -9
-13 -14 -13 -20 -3 -6 9 -4 11 5 5 8 -5 11 -4 6 3 -4 6 -13 9 -21 6 -8 -4 -13
-9 -11 -13 9 -14 -50 -7 -62 8 -8 9 -11 10 -7 4 9 -18 -4 -35 -18 -26 -22 14
-36 11 -30 -5 5 -14 3 -15 -8 -4 -16 14 -63 17 -54 2 3 -5 1 -10 -4 -10 -6 0
-11 5 -11 11 0 6 -6 9 -12 6 -7 -2 -12 -11 -10 -18 1 -8 -4 -5 -13 5 -13 17
-19 15 -17 -5 1 -3 -9 -5 -21 -4 -12 1 -28 -2 -34 -8 -9 -6 -13 -6 -13 2 0 6
5 11 10 11 6 0 10 5 10 10 0 6 -8 5 -19 -2 -11 -7 -17 -16 -14 -22 4 -5 1 -6
-8 0 -20 12 -39 14 -39 3 0 -5 -7 -9 -16 -9 -9 0 -12 5 -8 12 5 7 3 8 -5 4 -7
-5 -10 -15 -7 -25 3 -9 -4 -4 -17 11 -20 24 -23 25 -23 9 0 -11 5 -17 10 -14
5 3 6 1 2 -5 -3 -6 -15 -9 -26 -7 -10 2 -24 -3 -31 -11 -9 -12 -15 -12 -27 -2
-12 11 -16 10 -20 0 -3 -10 -8 -8 -18 5 -9 11 -13 13 -12 4 2 -7 -3 -16 -11
-19 -8 -2 -11 0 -8 5 3 5 0 10 -7 10 -8 0 -12 -7 -8 -15 3 -9 1 -13 -5 -9 -6
4 -14 1 -17 -5 -3 -7 -3 -2 0 12 l7 25 -22 -25 c-13 -14 -20 -20 -17 -13 7 13
-19 12 -31 -2 -4 -4 -2 -5 4 -1 9 5 11 2 7 -9 -6 -14 -8 -14 -20 2 -7 10 -14
13 -14 7 0 -7 -7 -15 -16 -18 -12 -5 -15 -2 -10 11 5 15 3 14 -9 -2 -9 -11
-20 -21 -25 -21 -6 -1 -11 -2 -12 -4 -11 -8 -45 -7 -58 3 -8 6 -12 7 -8 3 9
-11 -33 -35 -47 -27 -20 11 -42 7 -41 -7 1 -9 -10 -16 -27 -18 -16 -1 -39 -10
-52 -18 -17 -11 -26 -13 -31 -4 -4 7 -3 8 4 4 7 -4 12 -2 12 3 0 14 -17 14
-25 1 -4 -6 -12 -7 -18 -3 -9 5 -9 3 0 -8 10 -12 8 -15 -7 -15 -10 0 -17 3
-15 6 2 4 -2 7 -9 7 -8 0 -12 -6 -9 -13 3 -9 -2 -11 -18 -7 -15 4 -20 3 -15
-6 9 -14 -16 -11 -26 4 -5 6 -8 3 -8 -6 0 -9 -7 -19 -15 -23 -8 -3 -15 -1 -15
4 0 6 5 10 12 10 6 0 8 3 5 6 -9 9 -38 -16 -32 -26 3 -5 -5 -6 -17 -2 -16 4
-19 2 -13 -9 8 -12 6 -12 -8 0 -10 8 -20 11 -24 7 -3 -3 -1 -6 6 -6 7 0 9 -5
6 -10 -5 -8 -11 -8 -20 0 -10 8 -15 8 -21 -1 -5 -8 -3 -10 7 -4 10 6 11 5 4
-3 -6 -6 -19 -13 -30 -15 -11 -1 -35 -10 -53 -19 -18 -9 -40 -14 -48 -11 -9 3
-14 -1 -14 -13 0 -16 -1 -16 -14 2 -8 10 -18 16 -22 11 -4 -4 -2 -7 4 -7 7 0
12 -5 12 -11 0 -5 -4 -8 -9 -5 -5 3 -12 -1 -15 -9 -3 -8 -9 -15 -13 -14 -25 4
-53 -3 -51 -12 3 -11 -12 -16 -58 -21 -14 -1 -20 -7 -17 -15 6 -16 -17 -14
-30 2 -5 6 -7 0 -4 -13 5 -19 3 -21 -9 -11 -7 6 -11 16 -7 23 3 6 2 7 -3 3 -5
-5 -9 -16 -9 -24 0 -9 -6 -18 -14 -21 -9 -3 -11 0 -7 9 4 8 1 6 -7 -3 -8 -10
-19 -18 -26 -18 -6 0 -11 -6 -11 -12 0 -10 -2 -10 -9 0 -6 10 -10 8 -14 -8 -4
-16 -11 -21 -22 -16 -9 3 -18 0 -21 -9 -3 -7 -12 -11 -19 -9 -7 3 -16 0 -20
-5 -3 -6 -11 -9 -16 -6 -5 4 -6 -2 -2 -12 6 -15 4 -16 -9 -5 -11 9 -18 10 -23
2 -3 -6 -11 -7 -17 -4 -5 4 -5 -4 2 -17 10 -19 10 -22 0 -12 -10 9 -17 7 -33
-8 -12 -11 -28 -17 -36 -14 -9 3 -12 3 -8 -1 11 -12 -13 -33 -30 -27 -12 5
-14 3 -8 -8 7 -11 5 -11 -10 1 -11 9 -16 10 -11 3 6 -12 -11 -18 -37 -14 -4 1
-3 -9 4 -21 6 -13 8 -20 4 -16 -5 4 -15 2 -24 -5 -14 -11 -15 -10 -2 8 8 11
-3 3 -24 -18 -26 -26 -45 -37 -57 -33 -17 4 -17 2 -6 -12 7 -9 8 -13 2 -9 -7
4 -17 0 -24 -8 -7 -8 -19 -15 -26 -15 -8 0 -14 -4 -14 -8 0 -5 -15 -19 -32
-32 -25 -18 -29 -19 -18 -5 12 16 9 15 -17 -4 -18 -12 -33 -27 -33 -33 0 -5
-7 -7 -16 -4 -14 5 -15 4 -4 -9 11 -13 10 -14 -4 -9 -10 4 -16 1 -16 -9 0 -9
-5 -19 -12 -23 -7 -4 -8 -3 -4 4 5 8 2 10 -8 6 -9 -3 -13 -11 -9 -18 4 -6 -1
-5 -10 3 -15 12 -17 12 -11 -4 5 -12 4 -16 -4 -11 -6 3 -13 2 -17 -4 -3 -5 0
-10 7 -10 10 0 9 -3 -2 -10 -9 -6 -17 -5 -22 3 -5 7 -8 3 -8 -12 0 -17 -4 -22
-16 -17 -12 4 -15 2 -10 -9 5 -13 -10 -20 -36 -16 -4 0 -5 -5 -2 -13 3 -8 0
-17 -7 -22 -8 -5 -10 -3 -4 7 8 12 6 12 -9 0 -13 -11 -14 -16 -4 -22 7 -5 8
-9 2 -9 -5 0 -16 6 -23 13 -11 9 -13 9 -7 0 4 -7 0 -23 -8 -35 -9 -12 -16 -18
-16 -12 0 5 6 16 13 23 10 11 8 11 -10 0 -11 -7 -19 -19 -16 -26 4 -9 0 -11
-13 -6 -17 6 -17 5 -5 -10 7 -9 11 -18 7 -18 -3 -1 -10 -3 -16 -4 -5 -1 -17
-3 -25 -4 -8 0 -15 -6 -15 -12 0 -5 5 -7 10 -4 6 3 10 4 10 1 0 -3 -19 -17
-42 -31 -40 -24 -41 -25 -13 -20 l30 5 -27 -10 c-14 -6 -38 -30 -54 -53 -15
-23 -29 -36 -32 -29 -2 6 -8 12 -13 12 -4 0 -5 -7 -2 -17 5 -12 3 -14 -7 -8
-9 5 -11 4 -6 -4 5 -7 -3 -22 -19 -37 -23 -21 -29 -23 -43 -12 -15 11 -15 11
-6 -2 17 -22 14 -49 -4 -42 -12 4 -14 0 -9 -17 5 -19 3 -20 -11 -9 -14 11 -15
10 -9 -5 5 -14 2 -20 -14 -24 -12 -4 -18 -11 -15 -20 3 -8 1 -11 -4 -8 -6 3
-10 1 -10 -5 0 -6 -5 -8 -13 -4 -7 5 -6 0 3 -11 8 -10 10 -16 4 -12 -7 4 -23
-2 -35 -14 l-24 -20 23 11 c13 7 26 9 28 7 3 -3 -8 -11 -25 -18 -16 -7 -27
-17 -25 -21 3 -4 0 -8 -7 -8 -8 0 -7 -5 2 -17 8 -9 9 -14 2 -10 -6 4 -18 4
-27 1 -15 -6 -15 -8 1 -20 16 -13 15 -13 -9 -4 -23 8 -26 7 -21 -8 4 -9 11
-21 17 -25 6 -5 1 -5 -11 -2 -19 5 -22 3 -16 -11 4 -12 3 -15 -5 -10 -7 4 -12
1 -12 -9 0 -10 -5 -13 -12 -9 -9 5 -9 2 1 -9 12 -16 8 -22 -13 -18 -5 1 -6 -5
-3 -13 4 -9 2 -18 -4 -21 -5 -4 -6 -11 -3 -17 4 -7 2 -8 -4 -4 -7 4 -12 2 -12
-4 0 -6 -3 -9 -7 -7 -5 2 -16 -5 -26 -16 -19 -19 -18 -19 5 -13 20 6 20 5 5
-4 -9 -6 -15 -15 -12 -20 3 -5 -6 -17 -20 -26 -25 -16 -36 -42 -12 -28 6 4 2
-4 -11 -18 -12 -13 -21 -26 -20 -29 2 -2 1 -3 -1 -2 -2 1 -9 -3 -16 -10 -10
-9 -9 -14 4 -25 9 -7 12 -12 6 -11 -30 4 -37 -1 -25 -16 11 -13 10 -14 -4 -9
-9 3 -16 2 -16 -4 0 -6 6 -13 13 -15 9 -4 9 -6 0 -6 -7 -1 -13 -7 -13 -15 0
-8 -5 -18 -12 -22 -7 -5 -8 -3 -3 6 5 9 4 11 -4 6 -9 -6 -9 -11 -1 -21 12 -14
-11 -40 -25 -27 -5 4 -5 -1 -2 -11 4 -10 7 -21 7 -23 0 -3 5 -2 12 2 7 4 8 3
4 -5 -6 -9 -11 -9 -22 0 -9 7 -14 8 -13 3 4 -25 -2 -54 -11 -49 -5 3 -10 2
-10 -4 0 -5 6 -12 13 -14 8 -4 6 -6 -4 -6 -10 -1 -15 -9 -14 -23 1 -13 -7 -38
-17 -57 -16 -27 -17 -36 -6 -42 9 -6 6 -9 -10 -9 -13 0 -20 -4 -17 -10 4 -6
11 -7 17 -4 7 4 8 2 4 -5 -4 -6 -12 -8 -18 -5 -7 5 -9 0 -6 -14 5 -16 2 -22
-10 -22 -10 0 -13 -3 -7 -8 6 -4 11 -13 13 -21 2 -11 0 -12 -10 -4 -10 9 -13
2 -12 -32 0 -27 -3 -42 -9 -38 -6 4 -8 0 -4 -10 4 -10 0 -17 -11 -20 -14 -4
-14 -5 2 -6 20 -1 20 -1 0 -17 -10 -8 -12 -12 -4 -8 13 7 13 5 1 -9 -7 -9 -10
-17 -5 -17 4 0 -1 -7 -12 -16 -16 -13 -16 -15 -1 -10 9 3 17 3 17 -1 0 -3 -8
-12 -17 -19 -11 -9 -14 -17 -8 -21 13 -11 16 -45 2 -36 -6 4 -8 -2 -5 -15 4
-14 2 -19 -6 -16 -7 3 -13 -2 -13 -10 0 -8 4 -13 9 -10 4 3 8 0 8 -5 0 -6 -4
-11 -10 -11 -5 0 -10 -5 -10 -11 0 -5 4 -8 8 -5 5 3 9 -2 9 -10 0 -8 -5 -13
-11 -11 -6 3 -11 -6 -11 -19 0 -13 5 -24 10 -24 6 0 3 -5 -5 -10 -8 -5 -11
-10 -6 -10 5 0 2 -8 -5 -17 -12 -15 -12 -16 5 -10 14 6 16 4 9 -5 -6 -7 -9
-23 -8 -36 1 -13 -3 -26 -8 -29 -6 -4 -7 -1 -2 7 5 8 4 11 -3 6 -6 -3 -8 -18
-6 -32 4 -21 2 -25 -11 -20 -9 3 -13 2 -10 -4 7 -11 -39 -24 -59 -17 -11 4
-13 1 -9 -10 4 -10 2 -14 -5 -9 -6 3 -16 -2 -22 -11 -11 -17 -11 -16 -5 1 6
20 6 20 -16 0 -15 -12 -20 -14 -15 -4 4 8 1 7 -7 -3 -11 -13 -17 -15 -23 -6
-5 9 -10 8 -19 -4 -7 -10 -24 -18 -38 -19 -21 -2 -24 -5 -14 -17 10 -12 9 -13
-10 -2 -21 11 -27 8 -24 -12 1 -4 -8 -3 -19 3 -16 9 -19 8 -13 -6 4 -11 2 -15
-4 -11 -6 4 -18 -2 -28 -13 -14 -15 -21 -17 -32 -9 -10 9 -13 8 -13 0 0 -7 -5
-9 -12 -5 -7 5 -9 2 -6 -8 5 -11 0 -14 -19 -10 -20 4 -24 2 -18 -9 8 -12 6
-12 -8 0 -14 11 -18 11 -23 -3 -4 -10 -13 -15 -21 -12 -8 3 -12 2 -9 -2 2 -4
-3 -16 -11 -27 -12 -16 -14 -16 -10 -3 3 10 1 20 -5 24 -6 4 -8 3 -5 -3 9 -14
-19 -37 -34 -27 -7 4 -9 3 -5 -4 3 -6 2 -13 -4 -17 -5 -3 -10 -1 -10 5 0 7 -5
6 -14 -2 -8 -7 -12 -16 -9 -20 7 -13 -12 -9 -26 5 -10 10 -11 9 -5 -6 5 -13 2
-16 -12 -10 -12 4 -15 3 -10 -5 4 -7 1 -12 -8 -12 -9 0 -16 -5 -16 -11 0 -6
-9 -9 -20 -6 -10 3 -19 2 -18 -2 2 -17 -3 -34 -9 -28 -3 4 -12 2 -20 -4 -9 -9
-17 -8 -27 0 -10 8 -16 9 -21 1 -4 -6 -3 -9 2 -8 4 2 9 0 11 -4 1 -5 0 -7 -2
-5 -2 1 -14 -9 -26 -23 -12 -14 -18 -18 -14 -10 7 12 5 13 -8 3 -8 -7 -18 -9
-23 -5 -4 4 -4 -4 0 -18 7 -23 7 -23 -9 -7 -19 18 -27 21 -25 10 3 -20 -2 -34
-10 -28 -5 3 -12 1 -16 -5 -3 -5 -1 -10 6 -10 7 0 9 -3 6 -6 -4 -4 -19 1 -34
11 -21 14 -25 15 -15 3 10 -13 9 -17 -5 -23 -10 -5 -22 -7 -26 -6 -5 1 -6 -3
-2 -9 4 -6 16 -4 33 6 l27 16 -25 -21 c-14 -12 -33 -19 -43 -17 -14 4 -16 2
-7 -9 10 -11 8 -13 -9 -10 -14 3 -18 -1 -14 -11 4 -10 0 -12 -11 -8 -12 5 -19
0 -23 -16 -4 -16 -8 -18 -14 -8 -6 9 -9 7 -9 -9 0 -16 -5 -20 -22 -17 -13 2
-18 2 -11 -2 10 -4 10 -8 0 -19 -8 -9 -16 -10 -25 -3 -9 8 -11 7 -6 -5 8 -21
-28 -41 -44 -25 -9 9 -12 9 -12 0 0 -7 5 -12 10 -12 6 0 10 -5 10 -11 0 -6 -7
-9 -15 -6 -8 4 -17 1 -21 -5 -4 -7 -3 -8 4 -4 8 4 10 2 6 -8 -3 -8 -12 -12
-20 -9 -8 3 -14 -1 -14 -10 0 -9 -5 -19 -12 -23 -6 -4 -8 -3 -4 4 3 6 2 14 -4
17 -6 4 -10 3 -9 -2 1 -4 0 -11 -1 -15 -1 -5 -3 -14 -4 -20 -1 -7 -10 -11 -21
-10 -11 2 -17 0 -12 -4 9 -10 -22 -44 -41 -44 -9 0 -13 -7 -9 -20 4 -17 2 -18
-14 -10 -15 8 -17 7 -13 -5 4 -8 2 -15 -4 -15 -5 0 -12 -9 -15 -20 -3 -11 -11
-19 -19 -18 -7 2 -12 -3 -10 -11 2 -9 -3 -11 -14 -7 -15 6 -15 4 -3 -11 9 -11
10 -14 2 -9 -8 4 -13 2 -13 -4 0 -6 -4 -8 -10 -5 -6 4 -7 -1 -3 -11 4 -10 2
-15 -4 -11 -5 3 -17 -10 -26 -29 -10 -19 -22 -32 -27 -29 -6 3 -10 -2 -10 -12
-1 -17 -2 -16 -16 2 -15 19 -15 19 -9 -7 5 -19 2 -29 -12 -36 -10 -6 -18 -19
-18 -29 0 -13 -7 -18 -27 -18 -15 1 -24 -4 -20 -9 14 -23 8 -44 -11 -40 -15 2
-16 0 -7 -11 13 -16 -3 -30 -22 -19 -9 5 -8 2 1 -9 12 -15 12 -17 -2 -11 -12
4 -15 0 -13 -20 3 -20 0 -24 -10 -16 -10 9 -11 6 -7 -12 4 -23 4 -23 -12 -3
-16 19 -16 19 -9 -9 6 -23 4 -27 -7 -21 -11 7 -11 5 1 -10 12 -15 12 -17 1
-10 -11 6 -13 4 -8 -8 4 -12 2 -14 -10 -10 -12 5 -14 3 -8 -7 6 -10 4 -12 -11
-7 -18 7 -18 7 0 -8 17 -13 18 -15 3 -15 -9 0 -16 -3 -16 -7 3 -19 -2 -33 -12
-33 -5 0 -7 5 -4 10 3 6 1 10 -5 10 -6 0 -8 -10 -4 -26 5 -18 3 -25 -4 -20 -6
3 -14 1 -18 -5 -4 -8 -3 -9 4 -5 7 4 12 1 12 -9 0 -11 -5 -15 -15 -11 -8 3
-14 2 -13 -2 1 -4 -2 -15 -7 -25 -4 -10 -5 -21 -1 -24 3 -4 -6 -15 -21 -25
-16 -10 -23 -18 -18 -18 6 0 17 6 24 13 10 10 11 9 6 -5 -4 -10 -12 -18 -17
-18 -6 0 -7 -7 -4 -15 3 -9 -1 -18 -9 -21 -8 -4 -12 -11 -8 -17 4 -7 -1 -8
-13 -4 -18 7 -18 7 0 -8 16 -12 17 -15 4 -15 -21 0 -30 -24 -15 -39 7 -7 8
-12 2 -11 -21 4 -36 0 -30 -10 3 -5 13 -7 23 -4 12 4 11 2 -3 -7 -29 -17 -29
-17 -16 -33 9 -11 9 -16 0 -22 -8 -5 -10 -3 -5 7 4 8 0 5 -8 -5 -9 -11 -14
-28 -10 -38 6 -21 -6 -23 -26 -6 -8 7 -6 2 5 -11 17 -21 18 -23 3 -18 -12 4
-15 2 -11 -8 3 -8 10 -12 17 -8 7 4 7 1 -1 -9 -7 -8 -9 -19 -5 -23 4 -5 2 -5
-4 -2 -6 4 -16 -6 -23 -21 -10 -25 -10 -25 3 -8 14 18 15 18 13 -3 -1 -11 -7
-21 -15 -21 -7 0 -10 -5 -7 -10 4 -6 1 -18 -7 -27 -9 -12 -9 -15 0 -9 6 4 12
3 12 -2 0 -6 -7 -12 -15 -16 -12 -4 -13 -11 -5 -32 8 -21 8 -25 -3 -21 -8 3
-14 -1 -14 -9 0 -7 3 -11 7 -9 4 2 7 -3 7 -11 0 -8 -5 -13 -12 -10 -7 2 -10
-11 -8 -42 3 -29 -1 -48 -9 -54 -10 -6 -10 -8 0 -8 6 0 12 -5 12 -11 0 -6 -8
-8 -17 -5 -17 6 -17 5 -1 -7 17 -13 16 -15 -5 -26 -12 -6 -14 -9 -4 -7 9 3 17
4 17 3 0 -1 -4 -17 -9 -35 -6 -18 -6 -30 -1 -27 4 3 10 -1 13 -9 3 -8 -1 -17
-9 -20 -10 -4 -13 -2 -8 7 4 6 3 9 -1 4 -5 -4 -10 -18 -11 -30 -2 -12 0 -16 2
-9 3 6 10 12 15 12 6 0 5 -9 -1 -21 -17 -30 -20 -58 -9 -65 6 -3 5 -12 -3 -22
-10 -12 -10 -14 0 -8 8 5 12 0 12 -14 0 -12 -4 -19 -8 -16 -4 2 -8 -4 -8 -14
0 -13 4 -16 11 -10 8 7 11 3 10 -10 -1 -11 -4 -23 -8 -26 -4 -4 1 -13 11 -21
16 -12 15 -13 -3 -6 -19 7 -19 6 -3 -19 13 -19 15 -29 6 -34 -7 -5 -8 -3 -3 6
5 8 4 11 -3 6 -6 -4 -9 -13 -6 -21 4 -8 9 -13 13 -10 4 2 8 -2 8 -10 0 -8 -4
-12 -9 -9 -4 3 -8 0 -8 -5 0 -6 6 -11 13 -11 9 0 8 -3 -2 -9 -11 -7 -11 -9 0
-13 11 -4 12 -9 2 -27 -16 -25 -17 -42 -2 -21 8 12 10 8 6 -17 -2 -24 0 -30 8
-23 9 8 12 4 10 -12 -2 -13 -6 -30 -10 -39 -3 -10 -2 -20 4 -24 7 -4 8 0 4 12
-6 15 -5 16 9 3 13 -12 13 -17 1 -28 -16 -16 -17 -23 -2 -20 6 2 14 -3 16 -10
3 -8 -1 -10 -14 -6 -16 6 -16 5 -2 -7 9 -8 19 -23 23 -33 6 -18 5 -19 -12 -5
-10 8 -7 4 6 -8 20 -20 21 -23 5 -24 -11 0 -13 -3 -5 -6 6 -2 9 -10 5 -16 -4
-7 0 -6 10 1 15 12 15 11 7 -17 -7 -24 -6 -31 6 -31 8 0 14 -5 14 -11 0 -5 -4
-8 -8 -5 -5 3 -9 -1 -9 -9 0 -8 4 -12 9 -9 4 3 8 -4 8 -15 0 -10 -6 -22 -12
-25 -7 -3 -2 -3 12 1 23 5 24 5 10 -12 -9 -11 -10 -16 -2 -11 8 5 12 -1 12
-19 0 -15 4 -24 10 -20 6 3 10 1 10 -4 0 -6 -6 -11 -12 -11 -10 0 -9 -3 1 -9
7 -5 11 -14 7 -20 -5 -7 -1 -9 9 -5 9 4 15 3 14 -2 -4 -22 2 -55 9 -50 4 2 7
-7 6 -22 -1 -15 -2 -27 -3 -27 -2 0 -4 -8 -6 -18 -2 -11 0 -16 3 -12 4 4 7 11
7 16 0 5 5 9 10 9 6 0 10 -4 10 -10 0 -5 5 -14 12 -21 9 -9 9 -18 1 -33 -9
-17 -8 -19 3 -8 7 6 18 12 24 12 5 0 3 -5 -5 -10 -13 -9 -13 -11 0 -20 8 -5
11 -10 6 -10 -5 0 -2 -8 7 -18 10 -10 14 -22 10 -27 -5 -4 0 -5 9 -2 14 5 16
2 8 -17 -7 -20 -5 -25 12 -29 19 -5 20 -8 7 -23 -12 -15 -12 -16 0 -9 11 6 13
2 7 -21 l-6 -29 15 25 c9 14 14 18 12 10 -2 -8 3 -24 12 -34 9 -11 11 -16 5
-13 -7 4 -14 1 -17 -7 -3 -8 1 -13 11 -12 11 1 16 -6 15 -17 -1 -12 4 -17 14
-13 8 3 11 1 8 -4 -3 -6 0 -10 7 -10 9 0 9 -3 -2 -10 -13 -9 -13 -10 0 -11 8
-1 19 0 25 1 5 1 7 -2 3 -6 -4 -4 0 -13 10 -21 9 -8 11 -12 5 -8 -19 9 -16 -6
5 -22 9 -8 11 -12 5 -8 -7 3 -13 1 -13 -4 0 -6 5 -12 10 -12 6 -1 15 -3 20 -4
6 -1 13 -3 16 -4 4 0 1 -8 -6 -16 -10 -12 -9 -15 4 -15 9 0 20 -8 23 -17 4
-10 11 -21 17 -25 8 -6 7 -11 -2 -17 -11 -7 -10 -9 3 -15 9 -3 14 -10 11 -14
-3 -5 1 -9 9 -9 13 0 12 4 -2 19 -9 11 -11 18 -5 18 7 0 12 -5 12 -11 0 -5 6
-7 12 -3 7 4 10 4 6 -1 -8 -9 22 -65 34 -65 4 0 8 -5 8 -11 0 -5 -5 -7 -12 -3
-7 5 -8 3 -4 -5 5 -7 10 -10 14 -7 3 3 11 -2 19 -12 8 -9 11 -11 7 -3 -5 9 -3
12 4 7 7 -4 12 -16 12 -28 0 -14 5 -18 15 -15 8 4 17 1 21 -5 4 -7 3 -8 -4 -4
-7 4 -12 4 -12 1 0 -10 27 -35 38 -35 15 0 22 -28 9 -34 -7 -3 -6 -5 3 -5 36
3 50 -2 50 -16 0 -8 -5 -15 -11 -15 -5 0 -7 5 -3 12 4 7 3 8 -5 4 -15 -9 -3
-29 14 -22 7 2 18 -7 24 -21 10 -22 14 -23 28 -12 12 10 15 10 9 1 -4 -7 -2
-12 4 -12 6 0 8 -5 5 -10 -6 -9 8 -14 27 -11 7 1 12 -21 10 -40 -1 -4 8 -5 18
-2 19 5 26 -10 21 -40 -1 -5 3 -6 8 -2 6 3 8 13 5 23 -5 15 -5 15 6 -1 6 -9 8
-23 4 -30 -5 -7 0 -6 11 3 11 9 16 10 11 3 -6 -12 10 -18 35 -15 4 1 5 -9 2
-21 -5 -18 -3 -20 8 -9 16 15 29 16 29 1 0 -5 -4 -7 -10 -4 -5 3 -10 2 -10 -2
0 -5 9 -14 21 -21 15 -10 19 -10 14 -1 -5 6 18 -8 50 -32 54 -40 56 -44 34
-49 -23 -6 -23 -6 -4 -14 l20 -8 -20 -8 c-18 -8 -18 -9 5 -10 l25 0 -25 -20
c-24 -19 -24 -19 -3 -15 16 3 20 0 16 -11 -3 -7 -9 -11 -14 -8 -5 3 -6 -2 -3
-10 3 -9 10 -16 16 -16 5 0 6 -5 3 -10 -4 -6 -11 -8 -16 -5 -5 3 -6 -1 -3 -9
3 -9 10 -13 15 -10 5 3 6 -2 3 -10 -3 -9 -9 -14 -13 -12 -4 3 -5 -11 -3 -31 3
-26 7 -32 14 -22 7 11 8 9 4 -4 -3 -10 -6 -21 -6 -23 0 -3 -4 -3 -8 0 -4 2 -6
-11 -4 -31 3 -26 7 -32 14 -22 7 11 8 9 4 -4 -3 -10 -6 -21 -6 -23 0 -3 -5 -2
-12 2 -7 4 -8 3 -4 -5 4 -6 2 -20 -5 -29 -10 -12 -6 -11 10 3 l24 20 -12 -22
c-14 -27 -14 -36 -1 -28 6 3 7 -1 4 -9 -3 -9 -10 -13 -15 -10 -5 3 -5 -5 0
-18 4 -13 6 -29 3 -37 -3 -9 0 -11 9 -6 11 6 12 5 2 -6 -15 -15 -17 -43 -3
-34 5 3 7 0 4 -9 -3 -9 -12 -12 -22 -8 -14 5 -15 4 -2 -10 8 -9 18 -14 22 -11
4 2 5 -3 2 -11 -3 -9 -10 -13 -15 -10 -5 3 -6 -2 -3 -10 4 -10 1 -16 -7 -16
-7 0 -9 -3 -6 -6 4 -4 14 -1 23 7 16 13 16 12 6 -8 -15 -27 -15 -36 -2 -28 6
3 7 -1 4 -9 -3 -9 -10 -14 -14 -11 -5 3 -12 0 -16 -6 -4 -8 -3 -9 4 -5 16 10
15 -6 -1 -24 -6 -8 -1 -6 12 5 l24 20 -12 -22 c-14 -27 -14 -36 -1 -28 6 3 7
-1 4 -9 -3 -9 -10 -13 -15 -10 -5 3 -6 -2 -3 -10 4 -10 1 -16 -7 -16 -7 0 -9
-3 -6 -6 4 -4 14 -1 23 7 16 13 16 12 6 -8 -15 -27 -15 -36 -2 -28 6 3 7 -1 4
-9 -3 -9 -10 -14 -14 -11 -5 3 -12 0 -16 -6 -4 -8 -3 -9 4 -5 16 10 15 -6 0
-24 -7 -8 -2 -6 11 5 l24 20 -12 -22 c-14 -27 -14 -36 -1 -28 6 3 7 -1 4 -9
-3 -9 -10 -13 -15 -10 -5 3 -6 -1 -4 -8 13 -33 11 -90 -3 -95 -11 -5 -11 -7 0
-14 7 -5 12 -21 10 -40 -3 -20 0 -29 7 -25 7 4 9 1 5 -8 -3 -8 -13 -12 -22 -9
-13 4 -14 2 -4 -4 15 -11 23 -131 9 -140 -5 -3 0 -14 10 -26 10 -11 13 -17 7
-14 -7 4 -11 -3 -11 -18 0 -14 3 -22 8 -19 5 3 6 -2 3 -10 -3 -9 -10 -13 -15
-10 -5 3 -6 -3 -2 -12 5 -13 3 -15 -8 -9 -11 7 -11 4 1 -11 10 -13 15 -38 14
-74 -1 -30 2 -60 6 -65 5 -6 5 -17 0 -25 -13 -20 -12 -33 0 -25 5 3 7 0 4 -9
-3 -8 -13 -12 -22 -9 -12 3 -13 2 -5 -4 19 -13 22 -92 6 -109 -8 -8 -11 -14
-6 -14 5 0 14 5 21 12 9 9 11 6 10 -13 -2 -53 2 -70 15 -63 7 5 6 0 -3 -11 -9
-11 -10 -16 -2 -11 7 4 12 2 12 -4 0 -6 4 -9 9 -5 6 3 8 -3 6 -14 -2 -14 1
-18 11 -14 8 3 14 0 14 -6 0 -6 9 -11 20 -11 11 0 20 -5 20 -11 0 -5 -6 -7
-12 -3 -10 6 -10 4 0 -8 14 -17 28 -18 51 -4 10 6 12 5 7 -2 -4 -7 -2 -12 3
-12 6 0 11 6 11 13 0 8 4 7 10 -3 6 -10 10 -11 10 -2 0 6 5 12 11 12 5 0 7 -5
3 -12 -4 -7 6 -2 23 10 20 14 34 18 38 12 8 -13 25 -13 25 1 0 5 -4 7 -10 4
-5 -3 -10 -1 -10 4 0 6 7 11 16 11 9 0 12 5 8 12 -4 7 -3 8 4 4 7 -4 12 -1 12
6 0 9 3 9 10 -2 8 -13 10 -12 11 5 1 11 1 23 0 27 0 4 6 5 14 2 8 -4 12 -11 8
-17 -3 -6 -1 -7 6 -3 9 6 9 12 -1 24 -7 10 -8 14 -4 10 5 -4 22 7 39 25 16 17
24 23 16 12 -13 -19 -13 -19 4 -6 10 8 16 20 13 28 -4 11 -1 11 14 3 16 -8 18
-8 14 4 -3 8 0 17 5 21 6 3 8 12 4 18 -5 8 -2 8 9 0 12 -11 18 -9 33 7 15 16
21 18 34 7 14 -11 14 -10 2 6 -13 17 -15 17 -40 -5 l-26 -23 24 27 c13 15 33
30 43 34 10 3 16 10 13 15 -4 5 4 9 17 9 18 0 20 2 8 10 -13 8 -12 10 3 10 9
0 17 5 17 11 0 6 7 9 14 6 11 -4 13 -1 9 10 -4 11 -2 14 5 9 7 -4 12 -2 12 4
0 6 4 9 9 6 4 -3 17 4 27 17 12 13 13 17 3 9 -13 -9 -16 -9 -16 3 0 7 3 14 6
13 20 -2 31 3 26 12 -4 6 -1 9 7 8 7 -2 12 3 10 10 -1 6 1 11 5 10 5 0 16 2
26 7 14 6 15 10 5 23 -11 13 -10 14 10 3 12 -6 22 -8 21 -4 -4 15 13 43 22 37
5 -3 9 0 9 6 0 6 4 8 10 5 6 -3 7 1 4 10 -5 11 -2 14 12 8 12 -4 15 -3 10 5
-6 11 5 16 26 13 4 0 5 6 2 13 -6 16 29 40 41 28 4 -4 6 0 3 8 -6 19 17 42 39
38 12 -2 17 3 15 14 -2 11 3 18 13 18 9 0 13 5 10 10 -3 6 4 10 17 10 19 0 20
2 8 11 -12 9 -10 10 8 6 19 -5 21 -3 11 9 -14 17 2 19 20 2 11 -11 11 -9 2 9
-8 16 -8 23 -1 23 6 0 8 5 4 11 -5 8 -1 8 14 0 28 -15 30 -14 43 10 8 15 8 19
0 15 -6 -4 -11 0 -11 9 0 9 7 15 16 13 10 -2 24 9 34 27 10 17 23 29 29 27 6
-1 11 5 11 14 0 8 4 12 10 9 5 -3 10 2 10 11 0 16 1 16 15 -2 13 -16 14 -16 9
-1 -4 10 -1 17 6 17 6 0 8 5 4 12 -5 7 -1 9 13 6 16 -4 19 -2 16 13 -3 11 0
19 6 19 7 0 9 -5 5 -12 -4 -7 -3 -8 4 -4 7 4 12 14 12 21 0 17 34 37 46 27 5
-4 3 0 -4 9 -11 14 -10 17 5 15 10 0 17 5 15 12 -1 7 9 17 24 22 16 6 23 14
18 22 -4 7 3 4 17 -7 20 -17 22 -18 9 -1 -13 16 -12 20 3 31 9 6 14 14 11 17
-3 4 3 5 13 5 11 -1 18 4 17 15 -1 10 2 15 7 12 5 -3 17 0 26 6 17 11 17 11 0
6 -11 -3 -15 -2 -12 4 3 6 13 10 22 10 9 0 13 6 10 14 -4 10 -1 13 7 10 17 -7
48 24 40 38 -4 7 -2 8 5 4 6 -4 8 -13 5 -19 -4 -7 3 -2 15 11 12 12 26 20 32
17 13 -8 11 -16 -2 -13 -6 2 -14 -4 -16 -12 -3 -9 -1 -11 4 -4 10 14 76 14 85
1 4 -7 13 -6 24 4 16 13 17 12 11 -11 -5 -21 -4 -22 6 -10 13 17 117 23 117 8
0 -5 -14 -6 -32 -3 -18 4 -29 3 -25 -1 11 -12 77 -13 84 -1 4 6 1 7 -7 2 -9
-5 -11 -4 -6 3 10 17 26 15 26 -3 0 -8 5 -15 10 -15 6 0 10 6 10 13 0 8 4 7
10 -3 9 -13 11 -13 20 0 6 10 10 11 10 3 0 -7 7 -13 16 -13 8 0 13 4 10 8 -3
5 5 7 17 6 12 -1 26 -3 30 -3 5 -1 6 -5 3 -10 -4 -5 2 -7 11 -5 44 9 164 10
170 1 4 -6 1 -7 -8 -2 -8 5 -10 4 -6 0 13 -14 36 -14 31 0 -3 7 0 16 7 21 8 5
10 3 4 -6 -6 -10 -4 -12 9 -7 10 4 19 1 22 -8 4 -8 10 -12 15 -9 5 3 6 11 2
17 -4 7 0 6 10 -2 12 -9 17 -10 17 -2 0 7 5 9 12 5 17 -10 58 -11 58 -2 0 5
11 6 24 2 13 -3 27 -1 30 5 9 13 36 3 32 -12 -1 -7 -1 -9 1 -4 3 4 11 7 19 7
8 0 14 6 14 13 0 8 4 7 10 -3 8 -12 11 -13 19 -1 7 11 9 11 13 0 4 -12 8 -11
23 1 11 9 16 10 11 3 -9 -16 -1 -16 26 -2 13 7 18 7 14 1 -3 -6 -1 -14 5 -18
8 -4 9 -3 5 4 -4 7 -2 12 4 12 6 0 8 4 5 10 -3 6 1 7 10 4 9 -4 14 -13 11 -21
-3 -8 -1 -11 4 -8 6 3 10 14 10 23 0 15 2 15 10 2 5 -8 10 -10 10 -4 0 15 40
10 51 -7 6 -10 9 -10 9 -1 0 6 6 12 14 12 8 0 17 6 19 13 4 9 6 8 6 -2 1 -11
6 -10 21 4 20 18 21 18 14 -1 -6 -16 -5 -17 7 -7 7 7 25 13 40 13 15 0 30 4
33 9 7 11 25 9 45 -3 8 -5 12 -5 9 0 -3 5 0 15 8 22 8 7 14 9 14 4 0 -6 8 -9
17 -8 10 0 18 -4 18 -11 0 -6 3 -15 7 -19 4 -3 6 3 3 15 -2 14 1 21 11 21 9 0
12 -5 8 -12 -4 -7 -3 -8 5 -4 6 4 9 12 6 17 -4 5 2 9 12 9 11 0 24 5 30 11 8
8 13 7 18 -2 6 -8 4 -10 -5 -4 -9 6 -11 4 -5 -5 6 -10 11 -9 22 5 9 13 13 14
13 5 0 -9 5 -8 16 6 8 10 13 14 10 7 -4 -6 -2 -14 4 -18 5 -3 10 1 10 9 0 10
6 13 15 10 8 -4 12 -11 8 -17 -3 -6 -1 -7 6 -3 6 4 9 11 6 16 -3 5 -1 11 5 15
5 3 10 2 10 -2 0 -5 11 -9 24 -9 14 0 22 4 20 8 -3 5 -10 6 -15 3 -5 -4 -9 -1
-9 5 0 6 11 8 25 6 15 -3 25 0 26 7 0 7 4 3 9 -8 8 -18 9 -18 9 -2 1 10 6 15
11 12 6 -3 10 -2 10 3 0 5 7 9 15 9 8 0 12 -4 10 -8 -3 -3 3 -13 13 -20 15
-12 16 -12 5 2 -11 13 -10 19 5 31 9 9 27 14 40 12 17 -3 21 0 16 8 -6 10 -3
9 9 0 13 -11 18 -11 32 5 10 12 28 18 50 18 19 -1 32 2 29 6 -2 4 0 10 6 14 5
3 10 0 11 -7 0 -7 4 -5 8 6 5 13 20 20 52 22 24 3 46 9 47 14 2 6 10 10 18 10
8 0 14 6 14 13 0 9 3 8 9 -2 7 -10 9 -11 13 -1 2 8 12 14 21 16 11 1 14 -2 10
-9 -5 -8 -2 -8 9 0 8 7 19 9 24 5 4 -4 3 0 -4 10 -10 12 -10 18 -1 24 8 4 9 3
5 -4 -10 -16 6 -15 40 2 15 8 31 13 36 10 4 -3 8 0 8 5 0 6 7 11 16 11 8 0 12
4 9 10 -3 5 -1 10 4 10 6 0 11 -4 11 -10 0 -5 5 -10 11 -10 5 0 7 5 3 12 -5 8
-2 9 12 4 10 -4 15 -4 12 0 -13 12 16 32 34 23 13 -7 16 -5 13 9 -2 11 3 19
10 19 8 0 12 -4 9 -8 -2 -4 0 -11 6 -14 6 -4 10 -3 9 2 -3 19 2 34 10 29 5 -3
11 1 15 9 3 8 12 12 21 9 8 -3 15 -2 15 4 0 16 30 23 50 12 13 -7 21 -7 25 0
4 6 1 9 -5 8 -7 -2 -14 5 -15 15 -3 14 0 16 10 7 9 -8 14 -6 19 7 6 15 8 15
16 3 8 -13 10 -12 10 3 0 13 6 17 23 15 16 -2 22 2 21 14 -1 10 2 15 7 12 5
-3 9 0 9 5 0 6 4 11 10 11 5 0 7 -8 3 -17 -5 -15 -3 -14 10 2 8 11 13 23 11
27 -3 4 2 5 10 2 9 -4 16 -1 16 6 0 10 3 10 15 0 12 -10 14 -8 10 9 -2 12 0
19 4 16 5 -3 11 2 15 10 3 8 13 15 21 15 10 0 13 -5 9 -12 -4 -7 -3 -8 5 -4 6
4 9 12 6 17 -4 5 -1 9 4 9 6 0 10 6 9 12 -2 7 5 12 15 10 9 -2 17 2 17 8 0 5
7 10 16 10 8 0 12 4 9 10 -4 6 1 7 11 3 13 -5 16 -3 11 10 -4 11 -2 14 8 11 7
-3 19 4 25 16 6 12 14 19 17 16 3 -3 0 -12 -6 -20 -9 -11 -9 -16 0 -22 7 -4 9
-3 6 3 -4 6 0 16 9 23 8 7 13 19 10 26 -3 8 2 11 15 9 11 -2 19 2 19 10 0 9 6
12 15 9 10 -4 13 0 10 14 -3 15 2 19 21 16 13 -1 27 3 31 8 3 7 1 8 -5 4 -7
-4 -12 -2 -12 3 0 6 6 11 14 11 8 0 17 7 20 16 3 8 10 12 16 9 5 -3 10 -1 10
4 0 6 6 10 13 9 6 -2 11 3 9 11 -1 7 3 19 9 27 9 12 15 12 27 2 13 -11 14 -10
7 11 -4 15 -3 21 3 17 5 -3 13 1 16 10 3 8 10 12 16 9 9 -5 14 7 12 26 -1 4 9
5 21 3 12 -2 16 -2 10 2 -16 7 8 34 31 34 9 0 16 5 16 11 0 5 -6 7 -12 3 -7
-4 -6 1 4 11 17 18 44 12 32 -7 -5 -7 -2 -8 5 -4 9 6 8 13 -6 29 -10 12 -14
19 -9 15 5 -4 15 0 23 10 8 9 11 11 7 3 -5 -10 -3 -12 5 -7 7 5 10 14 7 21 -3
8 3 19 12 27 13 11 15 11 7 -2 -8 -13 -7 -13 9 -1 9 8 15 20 12 27 -6 16 19
38 34 29 6 -3 10 3 10 14 0 23 15 28 24 9 3 -7 3 -1 1 14 -2 15 1 31 7 34 7 5
8 2 4 -7 -4 -8 -1 -6 7 3 8 10 18 14 23 10 4 -4 2 1 -5 11 -12 15 -12 17 4 11
13 -5 16 -4 11 4 -4 7 -1 12 8 12 10 0 13 7 11 21 -4 18 -2 19 12 7 15 -12 15
-11 3 12 -12 23 -12 24 4 11 14 -12 16 -12 10 3 -5 12 0 19 15 23 11 3 18 9
15 14 -3 5 -10 6 -16 3 -7 -4 -8 -2 -4 5 4 6 12 8 18 5 7 -5 9 -1 5 9 -4 12
-2 14 10 10 13 -5 15 -2 10 11 -4 9 -3 15 2 11 5 -3 12 -1 16 5 3 5 1 10 -5
10 -7 0 -6 5 2 14 7 8 16 12 21 9 4 -2 7 1 7 6 0 6 -6 11 -12 11 -7 1 -1 8 15
16 15 8 27 17 27 20 0 3 -4 2 -10 -1 -5 -3 -10 -1 -10 4 0 6 5 11 11 11 5 0 7
5 3 12 -5 8 -2 9 11 4 15 -5 16 -4 5 9 -11 13 -10 14 3 9 12 -4 15 -1 12 15
-4 20 6 26 30 21 6 -1 4 4 -2 11 -18 18 -16 34 1 20 11 -10 14 -9 12 1 -1 7
-5 18 -9 25 -4 6 -2 15 4 19 8 4 9 3 5 -4 -4 -7 -2 -12 3 -12 10 0 15 13 9 25
-2 2 6 11 17 20 11 9 15 14 8 11 -6 -4 -15 -1 -19 6 -4 7 -4 10 0 6 10 -8 67
12 61 21 -2 4 2 8 10 8 8 0 15 -4 15 -9 0 -4 5 -8 11 -8 5 0 7 4 4 10 -9 14 9
12 24 -2 10 -11 11 -10 6 3 -6 17 19 20 44 4 11 -6 13 -4 9 7 -4 9 0 15 8 15
8 0 13 -5 11 -12 -3 -6 3 -11 13 -11 11 0 16 6 12 15 -3 9 0 12 9 9 8 -3 13
-12 11 -19 -1 -8 7 -3 18 10 18 21 20 21 20 5 0 -15 2 -16 9 -5 7 11 9 11 13
0 4 -11 8 -12 20 -2 8 7 19 9 24 5 4 -4 3 0 -3 9 -11 13 -8 15 20 13 18 -1 38
3 45 9 10 8 12 7 10 -2 -2 -8 5 -15 15 -16 15 -3 16 -1 6 11 -10 12 -9 13 5 8
9 -3 16 -10 16 -15 0 -5 6 -8 13 -7 6 2 11 -5 11 -14 -1 -14 2 -15 17 -8 15 8
17 7 13 -5 -4 -10 0 -15 11 -15 12 0 16 -6 13 -18 -3 -11 0 -19 8 -19 7 0 11
4 8 9 -3 4 2 5 10 2 9 -3 15 -9 14 -12 -2 -21 4 -31 16 -26 8 3 17 0 22 -7 4
-8 3 -10 -4 -5 -7 4 -12 2 -12 -3 0 -6 7 -11 15 -11 9 0 18 -7 21 -15 4 -8 10
-15 16 -15 5 0 6 5 2 12 -4 7 -3 8 4 4 6 -4 9 -13 5 -21 -5 -14 13 -21 40 -16
5 1 6 -3 2 -9 -3 -6 -11 -7 -17 -4 -7 4 -8 2 -4 -4 4 -6 14 -8 23 -5 12 5 14
3 8 -7 -6 -10 -4 -12 10 -6 16 6 16 4 4 -11 -9 -11 -10 -14 -1 -9 6 4 12 3 12
-2 0 -5 12 -14 26 -21 17 -7 24 -17 20 -26 -3 -8 -1 -15 3 -15 5 0 12 6 14 13
3 7 6 4 6 -6 1 -11 6 -15 13 -11 7 5 8 3 3 -5 -4 -8 1 -21 14 -32 12 -11 21
-15 21 -10 0 6 -8 15 -17 20 -10 6 -13 11 -6 11 6 0 20 -11 31 -25 11 -13 23
-21 28 -17 5 4 2 -1 -5 -11 -8 -9 -11 -20 -7 -24 3 -3 6 -1 6 5 0 6 7 9 15 6
8 -4 15 -12 15 -20 0 -8 5 -14 11 -14 5 0 7 5 3 12 -4 6 -3 8 4 5 5 -4 8 -17
5 -30 -4 -18 -3 -19 6 -7 8 12 11 12 11 1 0 -8 6 -11 16 -7 8 3 13 2 10 -2 -3
-5 4 -14 14 -22 10 -8 17 -17 14 -22 -5 -7 10 -12 29 -9 5 1 6 -3 2 -9 -3 -6
4 -10 17 -10 13 0 18 -3 12 -8 -7 -5 -3 -15 13 -30 12 -12 23 -20 23 -17 0 3
6 0 14 -7 9 -9 11 -17 5 -25 -7 -7 -6 -14 2 -19 8 -4 9 -3 5 4 -8 13 4 15 28
6 9 -3 16 -14 16 -24 0 -10 9 -20 20 -23 11 -3 20 -9 19 -14 -4 -20 2 -24 18
-12 11 10 14 10 9 2 -4 -7 -2 -13 3 -13 6 0 11 -10 12 -22 0 -13 3 -17 6 -10
2 6 10 12 15 12 6 0 9 -3 6 -6 -9 -8 35 -51 46 -46 5 3 7 -2 3 -11 -4 -12 -1
-15 16 -12 22 4 22 4 2 -11 -20 -16 -20 -16 3 -9 13 4 22 2 22 -5 0 -6 5 -8
12 -4 7 4 8 3 4 -4 -4 -7 -1 -12 10 -12 12 0 15 -6 11 -21 -4 -16 -3 -18 9 -8
11 9 14 8 14 -6 0 -11 5 -15 16 -11 8 3 12 2 9 -4 -6 -9 8 -14 28 -11 4 1 3
-8 -3 -19 -6 -11 -7 -20 -3 -19 4 1 17 1 28 -1 l20 -1 -20 -9 c-18 -8 -17 -9
8 -9 21 -1 27 -6 27 -22 0 -16 5 -20 19 -16 14 3 18 1 14 -10 -4 -10 0 -14 13
-11 14 2 19 -3 18 -20 -1 -17 2 -20 11 -12 18 15 39 -12 22 -29 -6 -7 -7 -12
-2 -11 29 6 75 -26 75 -51 0 -12 2 -12 9 -1 6 10 10 9 14 -7 3 -14 10 -19 21
-15 12 4 16 0 17 -17 1 -13 1 -28 0 -32 -1 -5 3 -6 9 -2 6 3 7 12 4 18 -4 7 2
3 13 -8 11 -11 19 -23 16 -28 -2 -4 1 -7 7 -7 6 0 8 -5 4 -13 -5 -8 -2 -8 9 2
15 11 17 11 17 -2 0 -8 7 -18 16 -21 8 -3 13 -10 10 -15 -3 -5 1 -12 10 -15
10 -4 13 -2 9 7 -4 6 0 4 8 -5 8 -10 18 -14 23 -10 4 4 3 0 -3 -8 -9 -12 -7
-20 7 -38 13 -15 20 -18 24 -10 5 11 7 11 12 0 3 -6 11 -9 17 -5 7 4 8 0 3
-13 -4 -10 -4 -15 0 -11 9 8 36 -12 29 -23 -2 -4 7 -6 20 -4 14 1 23 -2 19 -7
-3 -5 -10 -6 -16 -3 -7 4 -8 2 -4 -5 4 -6 12 -9 17 -6 5 4 9 1 9 -4 0 -6 3
-10 8 -10 19 3 33 -2 27 -11 -3 -5 -1 -10 4 -10 6 0 11 6 11 13 0 9 2 9 9 -1
9 -15 68 -14 87 0 6 5 24 4 39 -2 23 -9 26 -8 17 3 -7 8 -9 17 -5 20 3 4 12
-1 20 -11 8 -9 12 -12 9 -6 -3 6 2 20 10 30 9 10 13 14 10 7 -4 -6 -2 -14 3
-17 5 -3 8 7 7 23 -1 17 2 27 7 24 18 -11 34 29 26 71 -6 35 -5 38 6 23 12
-17 13 -16 11 7 0 15 -4 26 -9 26 -11 0 -4 24 12 36 11 9 12 12 1 19 -9 6 -11
4 -5 -5 5 -9 4 -11 -4 -6 -9 6 -9 11 1 24 9 10 9 13 1 9 -8 -5 -11 0 -10 13 1
11 5 20 9 20 4 0 8 5 8 11 0 5 -4 8 -9 4 -5 -3 -13 0 -17 6 -4 7 -3 9 3 6 6
-4 13 0 17 8 3 8 2 15 -3 15 -4 0 -8 7 -8 15 0 8 5 15 11 15 5 0 1 7 -10 15
-13 10 -14 13 -3 10 10 -4 16 0 16 10 0 8 -3 15 -7 15 -4 0 -7 7 -7 15 0 8 4
15 9 15 4 0 8 5 8 11 0 5 -4 8 -9 4 -5 -3 -13 0 -17 6 -4 7 -3 9 3 6 6 -4 13
0 17 8 3 8 2 15 -3 15 -4 0 -8 7 -8 15 0 8 5 15 11 15 6 0 4 5 -4 10 -8 5 -10
10 -4 10 6 0 11 7 11 15 0 8 -3 15 -7 15 -4 0 -7 7 -7 15 0 8 4 15 9 15 4 0 8
5 8 11 0 5 -4 8 -9 4 -5 -3 -13 0 -17 6 -4 7 -3 9 3 6 6 -4 13 0 17 8 3 8 2
15 -3 15 -4 0 -8 7 -8 15 0 8 5 15 11 15 5 0 1 7 -10 15 -13 10 -14 13 -3 10
10 -4 16 0 16 10 0 8 -3 15 -7 15 -4 0 -7 7 -7 15 0 8 4 15 9 15 4 0 8 5 8 11
0 5 -4 8 -9 4 -5 -3 -13 0 -17 6 -4 7 -3 9 3 6 6 -4 13 0 17 8 3 8 2 15 -3 15
-4 0 -8 7 -8 15 0 8 5 15 11 15 6 0 4 5 -4 10 -8 5 -10 10 -4 10 6 0 11 7 11
15 0 8 -3 15 -7 15 -4 0 -7 7 -7 15 0 8 4 15 9 15 4 0 8 5 8 11 0 5 -4 8 -9 4
-5 -3 -13 0 -17 6 -4 7 -3 9 3 6 6 -4 13 0 17 8 3 8 2 15 -3 15 -4 0 -8 7 -8
15 0 8 4 15 8 15 4 0 6 11 5 25 0 14 -3 25 -6 25 -3 0 -6 11 -6 25 -1 14 3 25
8 25 7 0 7 4 1 13 -13 16 -12 47 1 47 6 0 4 5 -4 10 -8 5 -10 10 -4 10 6 0 11
7 11 15 0 8 -3 15 -7 15 -4 0 -7 7 -7 15 0 8 4 15 9 15 4 0 8 5 8 11 0 5 -4 8
-9 4 -5 -3 -13 0 -17 6 -4 7 -3 9 3 6 6 -4 13 0 17 8 3 8 2 15 -3 15 -4 0 -8
7 -8 15 0 8 5 15 11 15 5 0 1 7 -10 15 -13 10 -14 13 -3 10 10 -4 16 0 16 10
0 8 -3 15 -7 15 -4 0 -7 7 -7 15 0 8 4 15 9 15 4 0 8 5 8 11 0 5 -4 8 -9 4 -5
-3 -13 0 -17 6 -4 7 -3 9 3 6 6 -4 13 0 17 8 3 8 2 15 -3 15 -4 0 -8 7 -8 15
0 8 5 15 11 15 6 0 4 5 -4 10 -8 5 -10 10 -4 10 6 0 11 7 11 15 0 8 -3 15 -7
15 -4 0 -7 7 -7 15 0 8 4 15 9 15 4 0 8 5 8 11 0 5 -4 8 -9 4 -5 -3 -13 0 -17
6 -4 7 -3 9 3 6 6 -4 13 0 17 8 3 8 2 15 -3 15 -4 0 -8 7 -8 15 0 8 4 15 8 15
4 0 6 11 5 25 0 14 -3 25 -6 25 -3 0 -6 11 -6 25 -1 14 1 25 5 25 4 0 8 7 8
15 0 8 -3 15 -7 15 -4 0 -7 7 -7 15 0 8 4 15 9 15 4 0 8 5 8 11 0 5 -4 8 -9 4
-5 -3 -13 0 -17 6 -4 7 -3 9 3 6 6 -4 13 0 17 8 3 8 2 15 -3 15 -4 0 -8 7 -8
15 0 8 4 15 9 15 4 0 8 5 8 11 0 5 -4 8 -9 4 -5 -3 -13 0 -17 6 -4 7 -3 9 3 6
6 -4 13 0 17 8 3 8 1 15 -4 15 -12 0 -9 22 5 33 6 6 6 10 -2 14 -20 7 -15 23
5 17 14 -5 15 -4 2 5 -18 12 -20 33 -5 44 7 4 7 10 0 15 -13 9 -16 82 -3 82 5
0 6 -5 2 -12 -5 -7 -3 -8 5 -3 9 5 9 11 3 17 -6 6 -8 17 -5 26 4 9 2 13 -4 9
-14 -9 -11 8 9 53 9 19 17 29 17 23 1 -7 5 -13 11 -13 5 0 7 6 4 14 -7 19 45
51 59 37 14 -14 27 -14 27 0 0 5 -4 8 -9 5 -5 -3 -15 1 -22 10 -7 8 -8 14 -3
13 25 -4 45 2 38 13 -5 8 0 9 15 5 19 -5 21 -3 9 11 -7 9 -8 14 -4 10 5 -4 15
0 23 10 9 10 12 11 7 2 -5 -10 0 -9 14 4 24 21 29 31 10 20 -7 -4 -5 2 5 13
11 13 28 20 42 18 22 -2 23 0 13 19 -10 19 -10 20 5 7 15 -12 17 -11 17 9 0
23 0 23 22 4 18 -15 20 -15 9 -2 -11 15 -10 20 3 33 9 9 20 14 25 10 5 -3 13
0 17 6 4 8 3 9 -4 5 -17 -10 -15 3 2 20 20 19 27 18 19 -3 -7 -19 -5 -18 17
11 8 11 10 17 3 13 -6 -4 -15 -3 -18 3 -4 6 -3 10 2 9 23 -4 43 2 43 14 0 6
23 37 52 67 28 30 49 47 45 38 -4 -12 -2 -15 7 -12 8 3 13 13 12 22 0 10 6 17
16 17 9 0 20 4 25 9 5 5 2 6 -6 1 -9 -5 -12 -3 -9 6 3 8 11 14 19 14 8 0 15 6
15 13 1 6 2 20 3 30 1 15 3 15 11 2 8 -13 10 -12 11 5 1 11 1 23 0 27 0 5 2 7
7 7 19 -3 33 2 27 11 -3 6 2 10 12 11 11 0 13 3 5 6 -6 2 -9 9 -6 14 3 6 11 5
20 -2 12 -10 13 -9 8 6 -6 13 -4 16 5 10 10 -6 11 -2 6 15 -5 15 -4 20 4 16 6
-4 11 -2 11 4 0 6 4 9 9 5 6 -3 8 4 6 15 -3 18 5 25 27 21 4 0 5 6 1 15 -4 10
2 17 16 21 11 3 21 10 21 15 0 5 -6 6 -12 3 -7 -4 -6 -1 3 7 9 7 16 16 17 21
2 14 21 42 22 32 0 -6 -5 -16 -11 -22 -8 -8 -7 -13 3 -18 7 -5 10 -5 6 0 -4 4
-3 13 2 20 5 6 11 21 13 32 5 31 37 75 52 70 9 -4 11 1 7 15 -4 15 -2 19 7 13
10 -6 11 -2 6 15 -5 15 -4 20 4 16 6 -4 11 -2 11 4 0 6 5 8 13 4 8 -5 7 -2 -2
9 -12 15 -12 17 3 11 19 -7 22 11 4 20 -7 4 -3 4 10 2 18 -4 21 -2 12 9 -8 10
-7 14 2 18 10 4 10 8 -2 17 -13 10 -13 11 3 6 9 -3 17 -1 17 5 0 6 4 8 9 4 5
-3 13 -1 16 5 4 6 3 10 -2 9 -21 -4 -24 3 -6 19 10 9 12 13 3 7 -12 -8 -12 -6
2 10 9 11 16 23 15 27 -1 4 6 16 15 27 12 14 13 21 5 25 -7 2 -4 5 6 5 9 1 17
6 17 12 0 5 -5 7 -12 3 -7 -4 -8 -3 -4 5 4 6 12 8 18 5 7 -5 9 0 6 14 -4 12
-2 20 3 16 5 -3 9 0 9 6 0 6 5 8 12 4 8 -5 9 -2 4 12 -13 33 -12 39 7 37 10 0
16 2 13 5 -3 3 2 14 11 25 10 11 13 17 6 14 -6 -4 -14 -3 -18 3 -3 5 1 10 10
10 9 0 13 5 10 10 -3 6 3 23 14 39 12 16 21 33 21 38 0 4 -5 1 -10 -7 -5 -8
-10 -10 -10 -5 1 14 26 46 32 40 2 -3 5 2 5 10 0 8 -4 12 -9 9 -4 -3 -8 -1 -8
5 0 5 10 13 21 16 12 4 17 10 12 14 -14 9 -12 41 3 41 7 0 16 5 20 12 4 7 3 8
-4 4 -14 -9 -16 22 -2 44 6 9 5 20 -3 30 -9 12 -9 13 3 3 19 -17 35 -16 21 1
-9 10 -8 15 4 20 8 3 15 11 15 18 0 9 -3 9 -11 -2 -9 -13 -10 -13 -6 1 3 9 0
22 -6 28 -9 10 -9 12 3 9 8 -2 14 3 12 11 -2 8 3 11 12 8 9 -4 18 -2 21 4 4 5
3 9 -2 8 -21 -4 -34 2 -27 12 4 7 8 21 9 33 1 11 3 25 4 29 0 5 7 5 14 1 6 -4
9 -3 4 1 -4 5 1 18 10 29 13 15 14 17 2 8 -13 -9 -16 -9 -16 3 0 8 7 15 16 16
10 0 8 4 -6 9 -22 9 -32 21 -15 19 4 -1 14 -1 22 0 13 1 13 2 0 11 -8 5 -11
10 -6 10 5 0 3 7 -4 15 -11 13 -10 14 2 10 10 -4 17 1 21 14 3 12 1 19 -4 15
-5 -3 -9 2 -9 10 0 9 6 16 13 16 8 0 7 4 -3 10 -13 9 -13 10 0 11 8 1 19 1 23
0 5 -1 6 3 2 9 -3 6 -12 7 -18 4 -7 -4 -9 -4 -5 1 4 4 2 15 -5 23 -6 9 -7 13
-2 10 6 -4 17 -3 25 3 9 5 10 9 4 9 -17 0 -25 28 -12 36 7 5 8 2 3 -6 -5 -8
-4 -11 3 -6 14 9 3 38 -12 30 -6 -3 -4 1 5 8 12 9 14 20 8 36 -5 14 -5 22 3
22 6 0 5 6 -3 17 -8 9 -9 14 -3 10 7 -4 15 0 18 9 3 8 2 13 -3 10 -5 -3 -12 1
-15 10 -3 8 -2 13 3 10 5 -3 12 1 15 10 3 8 2 13 -3 10 -5 -3 -12 1 -15 10 -4
10 -2 13 6 8 8 -5 9 -2 5 10 -4 10 -4 23 0 29 13 21 12 39 -2 33 -11 -4 -12 0
-5 18 5 13 6 27 2 30 -9 10 -10 46 0 40 4 -3 8 0 8 5 0 6 -6 11 -12 11 -10 0
-10 2 -1 8 15 9 18 32 8 56 -5 12 -3 21 6 28 10 7 9 8 -7 4 -15 -5 -21 -2 -21
9 0 9 6 14 13 11 8 -3 11 0 7 9 -3 8 -8 13 -12 10 -4 -2 -8 2 -8 10 0 8 4 12
8 10 4 -3 9 1 12 9 3 8 -1 13 -10 12 -9 0 -18 5 -20 12 -3 6 0 12 7 12 6 0 8
-5 4 -12 -5 -7 -3 -8 5 -4 9 6 8 13 -6 29 -10 11 -12 17 -5 13 6 -4 12 -3 12
3 0 5 -8 12 -17 14 -16 4 -16 5 1 6 18 1 17 3 -4 21 -13 11 -18 20 -11 20 7 0
9 5 6 10 -3 6 -1 10 5 10 7 0 9 -7 5 -17 -5 -15 -4 -16 7 -5 11 11 9 16 -12
32 -23 18 -23 20 -5 20 18 1 17 2 -5 16 -14 8 -17 13 -8 10 12 -3 15 -1 11 9
-3 8 -9 13 -13 10 -4 -3 -10 2 -13 10 -4 9 -1 12 9 8 7 -3 14 -1 14 5 0 5 -7
13 -16 16 -8 3 -13 10 -9 16 3 5 0 20 -6 32 -11 21 -11 22 5 9 14 -12 16 -12
10 3 -3 9 -11 16 -16 16 -7 0 -6 5 1 14 8 10 8 16 -2 25 -8 6 -17 8 -20 4 -4
-3 -7 -1 -7 5 0 7 7 12 15 12 8 0 15 4 15 10 0 5 -7 7 -15 4 -15 -6 -17 1 -18
73 -1 12 -5 20 -9 17 -4 -3 -8 2 -8 11 0 9 -4 13 -10 10 -5 -3 -10 -1 -10 4 0
6 6 11 13 11 8 0 8 3 -2 9 -8 5 -11 16 -8 25 4 9 1 15 -5 13 -7 -1 -12 3 -13
8 0 6 -6 21 -13 35 -12 23 -12 24 2 6 9 -11 16 -15 16 -9 0 7 -6 18 -14 26
-11 11 -12 17 -3 26 9 9 7 10 -8 5 -18 -7 -19 -6 -6 9 12 15 12 17 -3 11 -19
-7 -21 7 -3 25 10 10 8 12 -7 9 -10 -1 -21 3 -23 10 -3 8 2 10 14 6 17 -5 17
-5 0 6 -11 7 -25 27 -33 46 -8 19 -19 34 -25 34 -6 0 -8 9 -4 20 4 11 2 20 -4
20 -6 0 -10 6 -8 13 1 6 -4 11 -10 10 -7 -2 -12 0 -11 5 4 16 -14 52 -24 46
-7 -4 -8 -2 -4 5 4 6 11 9 16 6 5 -3 12 0 16 6 4 7 3 9 -3 6 -6 -4 -22 2 -34
14 -13 11 -19 18 -12 15 6 -4 14 -2 18 4 3 5 -1 10 -9 10 -9 0 -13 6 -10 14 3
8 0 17 -5 21 -6 3 -9 11 -5 16 3 5 2 9 -3 8 -20 -3 -34 2 -28 11 3 6 1 10 -4
10 -6 0 -10 6 -8 13 1 6 -4 11 -10 10 -7 -2 -13 2 -13 7 0 6 5 10 10 10 6 0
10 4 10 10 0 5 -7 6 -17 3 -10 -4 -14 -2 -10 4 4 6 0 14 -9 17 -10 4 -13 13
-9 27 4 13 3 19 -2 16 -6 -4 -21 5 -34 20 -13 14 -18 23 -11 19 6 -4 12 -3 12
2 0 6 -7 13 -16 16 -8 3 -12 10 -9 16 3 5 1 10 -5 10 -6 0 -8 5 -4 11 4 7 1
10 -7 7 -12 -4 -59 49 -59 68 0 4 -8 13 -17 20 -14 11 -14 13 -3 11 8 -2 12
-2 7 0 -4 3 -4 9 -1 15 4 6 -1 6 -14 -1 -17 -9 -19 -8 -15 9 3 12 0 20 -6 20
-7 0 -9 -5 -5 -12 4 -7 3 -8 -5 -4 -6 4 -9 11 -6 16 3 4 -2 13 -10 20 -8 7
-12 17 -8 23 4 6 0 8 -11 4 -10 -4 -15 -3 -11 3 3 6 1 10 -4 10 -6 0 -11 5
-11 11 0 5 6 7 13 3 6 -4 4 2 -6 14 -12 12 -25 18 -35 15 -10 -4 -14 -2 -9 2
4 5 -5 17 -20 27 -31 20 -24 24 10 7 21 -10 21 -9 -2 10 -12 12 -27 18 -32 15
-5 -3 -8 0 -7 8 2 7 -4 12 -14 10 -12 -2 -16 4 -14 21 3 20 -1 23 -22 19 -17
-3 -23 -1 -18 7 4 6 13 8 19 5 7 -4 -4 9 -22 29 -19 21 -39 37 -43 37 -5 0 4
-12 20 -27 15 -16 18 -20 7 -10 -12 9 -27 17 -34 17 -8 0 -11 6 -7 15 4 10 -2
19 -17 24 -33 13 -51 37 -36 47 8 4 9 3 5 -4 -5 -8 -1 -10 9 -5 13 4 14 8 4
14 -7 4 -21 3 -31 -2 -15 -8 -18 -6 -18 17 0 22 -2 24 -15 14 -12 -10 -13 -8
-10 10 3 18 1 20 -18 14 -19 -6 -20 -5 -8 10 8 9 11 19 7 23 -3 3 -6 1 -6 -5
0 -7 -5 -12 -11 -12 -6 0 -9 6 -6 13 3 8 -1 14 -9 14 -7 0 -11 -5 -8 -11 3 -6
-1 -2 -10 8 -8 10 -12 24 -9 30 4 6 -2 4 -12 -4 -17 -14 -18 -14 -6 8 12 22
11 23 -9 12 -12 -6 -24 -9 -28 -6 -3 3 0 6 7 6 9 0 7 5 -3 16 -9 8 -20 13 -24
10 -14 -8 -42 32 -36 51 5 15 4 15 -5 3 -11 -16 -12 -15 -30 15 -12 20 -12 20
-6 0 6 -20 6 -20 -13 0 -11 11 -17 25 -14 30 3 6 -3 3 -13 -5 -11 -9 -16 -10
-11 -2 4 7 2 12 -4 12 -6 0 -8 5 -4 11 5 8 -1 10 -20 7 -23 -5 -24 -3 -14 10
11 13 10 15 -9 10 -19 -5 -21 -3 -13 11 8 15 5 17 -22 13 -21 -3 -29 -1 -24 6
4 7 -4 14 -19 18 -14 3 -25 10 -25 16 0 5 4 7 8 4 5 -3 9 1 9 9 0 11 -4 12
-14 4 -12 -11 -17 -5 -14 15 1 5 -5 4 -13 -4 -12 -9 -16 -9 -16 -1 0 7 -5 9
-12 5 -6 -4 -9 -3 -5 2 3 5 -2 18 -10 29 -15 19 -15 19 -9 1 5 -16 4 -17 -9
-6 -8 7 -15 9 -15 4 0 -5 -7 -1 -15 9 -7 11 -12 24 -11 30 2 7 1 9 -1 5 -8
-14 -31 -9 -37 8 -3 9 -12 14 -19 11 -6 -2 -22 9 -33 25 -15 20 -24 25 -28 16
-5 -11 -7 -11 -12 0 -5 10 -9 10 -21 1 -8 -7 -13 -8 -12 -3 1 5 1 16 0 24 -1
13 -2 13 -11 0 -7 -11 -10 -11 -10 -2 0 7 -6 10 -12 7 -7 -4 -5 0 4 8 16 12
14 14 -14 14 -17 0 -34 6 -39 15 -6 10 -17 14 -31 10 -13 -3 -19 -1 -15 5 4 6
0 14 -9 17 -10 4 -13 2 -8 -7 5 -7 0 -5 -11 3 -10 8 -21 15 -24 15 -3 0 -5 6
-5 13 2 10 -1 10 -14 0 -13 -11 -15 -10 -10 10 5 19 4 21 -8 11 -12 -10 -18
-8 -30 10 -13 17 -19 20 -30 10 -11 -9 -14 -8 -14 7 0 16 -2 17 -10 4 -7 -11
-10 -11 -10 -2 0 7 -4 11 -9 7 -5 -3 -13 0 -17 6 -5 8 -3 9 6 4 9 -6 11 -4 5
5 -6 10 -11 9 -22 -5 -7 -11 -13 -13 -13 -7 0 7 -11 17 -25 22 -14 5 -25 15
-25 21 0 8 -6 7 -17 -2 -11 -10 -14 -10 -9 -1 5 8 0 12 -13 12 -12 0 -21 5
-21 11 0 5 5 7 12 3 7 -5 8 -3 4 5 -6 9 -12 8 -26 -4 -16 -15 -17 -14 -15 9 2
18 -1 23 -12 19 -12 -5 -12 -7 -1 -14 11 -7 11 -9 0 -9 -7 0 -20 7 -28 15 -11
11 -12 15 -3 15 7 0 9 3 6 6 -4 4 -13 1 -22 -6 -10 -8 -15 -9 -15 -1 0 6 -7
11 -16 11 -9 0 -22 7 -29 17 -9 13 -14 13 -20 3 -6 -9 -4 -11 5 -5 9 5 11 4 6
-4 -10 -16 -29 -2 -21 16 4 13 3 14 -10 3 -12 -10 -15 -10 -15 0 0 9 -4 9 -17
-1 -9 -8 -14 -9 -11 -4 4 6 3 17 -3 25 -7 12 -9 12 -9 -3 0 -10 -5 -15 -10
-12 -6 4 -7 12 -3 18 4 7 0 6 -10 -2 -15 -12 -17 -11 -17 2 0 9 -5 19 -12 23
-7 4 -8 3 -4 -4 4 -7 1 -12 -8 -12 -9 0 -16 5 -16 11 0 8 -6 7 -17 -2 -14 -12
-16 -12 -8 0 6 11 3 13 -13 9 -16 -4 -19 -2 -15 10 5 11 3 13 -8 7 -7 -5 -22
-10 -31 -10 -13 -1 -15 2 -7 11 7 8 6 14 -2 20 -8 4 -9 3 -5 -4 5 -8 -1 -12
-15 -12 -18 0 -19 2 -9 15 11 13 10 14 -6 9 -10 -4 -25 -12 -33 -18 -11 -8
-13 -8 -7 2 7 11 -5 17 -28 13 -5 -1 -6 5 -3 13 4 9 0 13 -11 11 -9 -1 -23 3
-31 9 -12 9 -13 8 -8 -7 6 -15 4 -16 -13 -7 -13 7 -17 16 -13 28 4 11 -1 9
-15 -7 l-22 -24 0 24 c0 19 -2 21 -10 9 -9 -13 -13 -12 -28 6 -14 16 -20 18
-29 9 -7 -7 -9 -17 -5 -21 4 -5 0 -3 -8 3 -8 6 -24 13 -35 15 -11 1 -27 10
-35 18 -8 9 -11 10 -7 4 6 -9 2 -11 -12 -7 -12 3 -18 10 -14 17 4 6 -2 4 -12
-4 -17 -14 -18 -13 -13 2 5 11 2 15 -10 13 -9 -2 -23 -4 -30 -4 -7 -1 -10 -5
-7 -11 3 -6 -1 -7 -10 -4 -14 6 -14 8 2 20 17 13 17 14 -2 7 -11 -3 -25 -10
-32 -15 -7 -6 -15 -3 -21 8 -6 11 -11 13 -16 5 -4 -6 -13 -11 -19 -11 -7 0 -6
4 3 10 12 8 11 10 -7 10 -12 0 -24 4 -27 9 -7 10 -32 9 -43 -2 -4 -4 -13 3
-20 15 -7 13 -12 17 -13 10 0 -8 -5 -10 -12 -6 -8 5 -9 1 -5 -12 7 -18 7 -18
-8 0 -8 11 -15 15 -15 8 0 -8 -7 -9 -25 -2 -14 5 -32 7 -40 4 -8 -4 -15 -1
-15 6 0 9 -4 9 -16 -1 -15 -12 -16 -11 -11 11 4 14 4 19 1 13 -3 -7 -17 -13
-30 -13 -13 0 -24 -5 -24 -12 0 -6 -6 -3 -14 7 -8 11 -12 24 -8 30 3 5 -1 5
-9 -1 -8 -6 -22 -10 -32 -9 -9 2 -15 0 -12 -4 2 -4 -2 -8 -10 -8 -8 0 -12 4
-9 9 3 4 0 8 -5 8 -6 0 -11 -4 -11 -9 0 -12 -18 -9 -47 7 -16 9 -23 9 -23 2 0
-6 -5 -8 -10 -5 -6 4 -7 11 -4 17 4 7 2 8 -4 4 -6 -4 -10 -12 -8 -19 1 -7 1
-9 -1 -4 -3 4 -9 5 -14 2 -5 -4 -6 2 -2 12 5 15 3 16 -8 6 -7 -7 -17 -13 -22
-13 -4 0 -5 6 -1 13 6 9 4 9 -7 1 -8 -6 -24 -14 -37 -17 -20 -5 -22 -3 -10 11
7 9 8 14 4 10 -5 -4 -16 -2 -24 5 -13 10 -14 9 -7 -2 6 -11 4 -13 -7 -8 -9 3
-21 0 -27 -6 -8 -8 -11 -8 -11 1 0 14 -42 12 -52 -3 -4 -6 -8 -1 -8 9 0 20 0
20 -16 0 -15 -18 -15 -18 -9 4 4 12 5 22 3 22 -2 0 -10 -10 -17 -22z m442 -45
c-3 -7 -9 -10 -14 -7 -14 8 -11 21 5 21 8 0 12 -6 9 -14z m301 -35 c-3 -4 -9
-8 -15 -8 -5 0 -9 4 -9 8 0 5 7 9 15 9 8 0 12 -4 9 -9z m-970 -321 c-3 -8 2
-14 10 -14 8 0 13 4 10 8 -2 4 1 11 7 15 7 4 9 3 5 -4 -9 -15 7 -23 24 -12 9
5 20 4 29 -3 10 -8 13 -8 8 -1 -4 7 0 15 9 18 9 4 13 2 8 -5 -4 -8 1 -9 16 -4
13 4 20 3 17 -2 -4 -5 0 -10 8 -10 8 0 12 4 9 9 -3 4 2 8 11 8 9 0 13 -4 10
-10 -3 -6 1 -7 9 -4 9 3 13 11 9 18 -4 6 0 6 9 -2 11 -9 18 -10 23 -2 9 14 27
2 19 -13 -5 -8 -3 -8 7 1 16 15 33 16 23 0 -5 -7 -3 -8 7 -3 20 13 49 13 49 2
0 -6 3 -7 7 -4 3 4 14 0 23 -8 14 -13 17 -13 17 0 0 8 -5 11 -11 8 -6 -3 -7
-2 -3 3 9 10 77 12 77 2 0 -3 -5 -8 -12 -10 -7 -3 -5 -7 6 -11 9 -4 15 -3 11
2 -3 5 -1 12 5 16 5 3 10 1 10 -6 0 -7 6 -5 13 6 11 14 16 15 22 5 6 -9 4 -11
-6 -5 -12 8 -12 6 0 -8 15 -19 26 -23 15 -5 -5 8 0 9 15 5 19 -5 21 -3 9 11
-12 15 -11 16 5 3 10 -8 16 -20 13 -26 -3 -9 2 -11 17 -7 12 3 16 7 9 10 -6 2
-12 8 -12 13 0 6 9 5 21 -1 17 -10 18 -14 7 -28 -12 -15 -11 -16 4 -3 10 7 15
17 12 22 -3 5 0 9 5 9 6 0 11 -4 11 -9 0 -6 9 -9 20 -8 11 1 20 6 20 12 0 6 3
7 8 0 11 -15 32 -17 32 -2 0 7 5 5 10 -5 6 -10 18 -14 32 -11 19 4 20 3 8 -6
-12 -9 -9 -10 14 -5 22 5 27 4 21 -6 -5 -9 -3 -10 11 -3 29 12 64 9 74 -7 9
-13 10 -13 10 0 0 13 1 13 10 0 5 -8 20 -15 34 -15 14 -1 22 3 19 7 -2 5 -13
6 -24 3 -10 -4 -19 -2 -19 3 0 14 53 7 58 -7 2 -6 8 -11 13 -11 6 0 7 6 3 13
-6 9 -4 9 7 1 8 -6 31 -10 51 -9 20 0 35 -2 32 -6 -2 -4 3 -10 12 -13 8 -3 12
-10 9 -16 -4 -6 1 -7 10 -3 13 4 14 7 3 14 -9 6 -6 8 9 6 12 0 19 -5 17 -9 -6
-9 5 -11 49 -10 15 0 25 -4 22 -9 -8 -13 9 -11 22 2 8 8 13 7 18 -2 5 -7 4
-10 -2 -6 -5 3 -10 0 -10 -8 0 -13 4 -12 19 2 17 15 18 15 18 -3 0 -10 4 -15
8 -9 4 6 13 11 21 13 12 3 12 0 1 -13 -11 -13 -10 -14 5 -9 14 6 16 4 10 -6
-5 -8 -4 -11 3 -6 6 4 8 14 5 23 -6 15 -5 16 9 3 9 -8 13 -19 10 -25 -3 -5 2
-4 11 4 14 11 17 11 18 0 1 -8 1 -18 0 -22 -1 -5 3 -6 9 -2 6 3 8 11 5 16 -3
5 1 6 9 3 9 -3 16 -1 16 5 0 8 4 8 14 -1 8 -7 11 -17 8 -23 -3 -5 1 -4 9 2 13
10 19 9 35 -5 27 -23 48 -27 40 -7 -3 9 -2 13 4 10 6 -3 10 -16 10 -28 0 -14
3 -18 8 -10 9 14 28 12 60 -5 12 -7 28 -10 34 -6 7 4 8 3 4 -4 -5 -8 0 -12 13
-12 10 0 22 6 25 13 3 6 3 1 0 -13 -5 -20 -4 -22 6 -13 14 13 43 6 34 -9 -4
-6 2 -7 16 -3 15 5 20 4 16 -4 -5 -7 1 -11 14 -11 12 0 28 -7 37 -15 9 -9 23
-13 34 -10 11 4 19 2 19 -5 0 -7 7 -9 16 -6 9 3 25 -4 40 -19 22 -23 29 -23
25 -1 -1 5 4 4 12 -2 8 -7 16 -10 19 -7 2 3 5 -2 5 -10 0 -12 -3 -12 -16 -2
-14 11 -14 10 -2 -5 11 -14 17 -15 35 -6 19 10 20 10 7 -6 -8 -9 -11 -19 -7
-23 3 -3 6 -1 6 5 0 7 7 12 15 12 19 0 56 -31 49 -42 -3 -4 6 -4 20 2 14 5 25
6 25 2 -3 -19 2 -23 15 -12 12 9 17 7 28 -9 7 -12 16 -21 21 -21 4 0 5 5 1 12
-5 7 -3 8 6 3 10 -6 9 -11 -5 -22 -23 -16 -12 -17 17 -2 15 8 19 8 14 0 -4 -7
1 -11 13 -11 12 0 21 -4 21 -10 0 -5 9 -10 20 -10 11 0 20 -6 20 -14 0 -8 5
-18 12 -22 8 -5 9 -2 4 11 -5 14 -4 16 7 7 8 -7 18 -8 22 -4 5 4 5 -1 2 -11
-5 -13 -2 -17 11 -15 10 2 17 -3 16 -13 -1 -9 5 -16 12 -16 7 0 11 4 8 9 -3 4
0 8 5 8 10 0 15 -14 12 -33 -1 -4 8 -3 20 4 15 8 19 8 15 0 -4 -6 -2 -11 3
-11 6 0 11 -6 11 -14 0 -8 7 -17 16 -20 14 -5 15 -4 4 9 -7 9 -10 18 -6 22 3
3 6 1 6 -5 0 -7 7 -12 16 -12 8 0 12 -4 9 -10 -6 -9 8 -15 29 -11 5 1 6 -5 3
-13 -4 -11 -1 -13 10 -9 12 5 14 3 8 -7 -6 -10 -4 -12 9 -7 9 4 14 3 11 -2 -3
-5 -1 -12 5 -16 5 -3 11 2 11 12 1 16 2 16 6 1 2 -9 13 -20 24 -23 15 -5 17
-10 9 -26 -13 -23 -7 -25 14 -3 9 9 16 11 16 4 0 -6 4 -8 10 -5 6 3 7 -1 4 -9
-4 -11 0 -16 10 -16 29 0 65 -30 59 -48 -6 -15 -4 -15 9 -4 14 11 19 9 34 -17
12 -20 22 -27 29 -21 7 6 16 1 25 -13 12 -21 12 -21 -5 -7 -17 14 -17 14 -5
-7 11 -17 17 -19 27 -11 10 8 12 7 8 -4 -8 -20 20 -44 31 -27 4 7 3 9 -4 5 -6
-3 -13 -2 -16 3 -4 5 2 8 11 6 10 -1 17 -8 15 -14 -1 -6 3 -11 9 -11 5 0 7 -5
3 -12 -5 -8 -2 -9 9 -5 9 3 19 1 23 -5 5 -7 2 -8 -7 -4 -8 4 -5 1 5 -8 10 -8
24 -17 30 -19 8 -3 7 -12 -3 -28 -7 -14 -8 -19 -2 -13 16 15 58 6 66 -13 4
-12 2 -13 -8 -5 -10 9 -14 8 -14 -2 0 -8 9 -13 22 -11 12 1 22 -4 22 -11 0 -7
-3 -11 -7 -9 -4 2 -7 -3 -7 -11 0 -10 4 -11 11 -4 13 13 29 13 21 0 -3 -5 1
-10 9 -10 10 0 16 -9 17 -22 0 -13 3 -17 6 -10 2 6 9 12 14 12 6 0 7 -4 4 -10
-3 -5 -1 -10 4 -10 6 0 11 -9 11 -20 0 -11 5 -20 11 -20 5 0 7 -5 3 -12 -4 -7
-3 -8 5 -4 7 5 9 13 4 20 -4 7 0 3 9 -7 10 -11 15 -23 12 -28 -3 -5 4 -9 14
-9 24 0 48 -25 32 -35 -13 -8 -13 -25 1 -25 5 0 7 5 4 10 -3 6 -2 10 4 10 15
0 44 -47 36 -59 -4 -7 1 -8 12 -4 15 6 16 4 5 -9 -10 -13 -10 -18 -1 -24 7 -4
9 -3 6 3 -4 6 0 14 9 17 8 3 12 2 9 -4 -7 -11 8 -42 18 -41 4 1 8 -2 9 -6 1
-5 9 -15 18 -23 9 -8 11 -11 4 -7 -7 5 -15 3 -20 -4 -4 -8 -3 -9 4 -5 7 4 12
2 12 -3 0 -6 7 -11 15 -11 18 0 19 -11 3 -29 -11 -11 -9 -11 11 -1 15 8 21 8
17 1 -4 -6 -2 -11 3 -11 6 0 11 -5 11 -11 0 -5 -5 -7 -11 -3 -7 4 -1 -7 12
-25 27 -37 38 -42 15 -6 -9 14 -12 25 -7 25 10 0 31 -48 34 -78 0 -11 5 -18 9
-16 4 3 16 0 25 -6 14 -9 14 -10 2 -7 -9 3 -16 -1 -16 -8 0 -7 6 -11 14 -8 7
3 13 -2 13 -10 0 -9 7 -23 16 -32 9 -8 14 -22 11 -30 -4 -9 0 -12 12 -10 15 3
17 -1 13 -17 -3 -14 -1 -19 6 -14 8 5 10 1 5 -10 -4 -11 -3 -15 5 -10 6 3 14
1 18 -5 4 -7 3 -9 -4 -5 -6 3 -13 2 -17 -4 -3 -5 -1 -10 5 -10 6 0 8 -5 4 -12
-6 -10 -5 -10 7 -1 13 10 16 10 16 0 0 -6 4 -21 9 -31 6 -15 4 -17 -7 -11 -8
5 -11 5 -6 -1 5 -5 13 -9 18 -9 5 0 8 -3 7 -6 -2 -4 5 -16 16 -28 16 -18 17
-23 5 -38 -9 -11 -10 -14 -1 -9 7 4 12 2 12 -6 0 -9 3 -9 10 2 5 8 10 10 10 4
0 -5 -5 -15 -12 -22 -9 -9 -8 -12 7 -12 20 -1 20 -1 0 -16 -20 -16 -20 -16 1
-10 14 4 21 2 21 -8 0 -9 -5 -13 -11 -10 -6 3 -2 -2 9 -12 20 -16 20 -16 -3
-11 -12 3 -20 1 -16 -4 3 -5 12 -9 20 -9 9 0 23 -8 32 -17 16 -16 16 -16 0
-10 -10 3 -18 2 -18 -3 0 -6 4 -10 10 -10 5 0 7 -7 4 -15 -4 -8 1 -17 9 -21 9
-3 18 -12 21 -20 4 -11 0 -11 -22 2 -22 14 -21 11 8 -16 25 -23 29 -31 15 -26
-19 6 -19 5 1 -11 19 -16 19 -19 5 -33 -9 -8 -12 -12 -7 -7 6 4 16 7 24 7 10
0 10 -4 -3 -16 -9 -9 -13 -19 -10 -22 3 -4 10 0 15 8 6 8 10 10 10 4 0 -5 -6
-16 -12 -23 -9 -10 -10 -12 -1 -7 7 4 17 -3 24 -16 11 -20 10 -21 -3 -11 -12
11 -14 9 -13 -7 1 -11 5 -23 10 -27 4 -5 5 -2 0 6 -6 10 -4 12 4 7 9 -6 9 -11
0 -22 -9 -12 -9 -13 3 -9 9 4 15 0 15 -9 0 -8 -7 -12 -16 -9 -12 3 -12 2 2 -7
21 -14 23 -34 1 -26 -8 3 -12 2 -9 -4 3 -6 15 -10 26 -10 11 0 17 -5 14 -10
-4 -6 -10 -8 -15 -5 -5 3 -12 0 -16 -6 -4 -8 -3 -9 4 -5 7 4 12 2 12 -4 0 -6
5 -8 13 -4 8 5 8 2 -2 -9 -11 -13 -11 -17 -1 -17 8 0 10 -3 7 -7 -4 -3 -2 -12
3 -18 7 -9 6 -16 -5 -25 -13 -11 -13 -15 3 -39 13 -19 18 -44 17 -93 0 -36 2
-65 6 -63 6 5 0 -77 -7 -84 -2 -2 1 -10 7 -18 12 -14 0 -18 -17 -5 -5 4 2 -3
16 -16 16 -14 19 -20 8 -16 -15 5 -16 2 -8 -25 5 -19 5 -31 -1 -31 -5 0 -9 5
-9 12 0 6 -3 8 -6 5 -4 -4 -1 -14 7 -23 18 -22 18 -66 1 -79 -10 -8 -9 -15 8
-33 20 -21 15 -33 -6 -12 -6 6 -10 3 -11 -10 -1 -11 3 -18 8 -14 12 7 7 -18
-6 -29 -6 -6 -6 -10 3 -14 6 -2 12 -9 12 -14 0 -6 -5 -7 -12 -3 -7 5 -9 2 -5
-9 3 -9 -1 -18 -10 -22 -13 -4 -14 -8 -5 -17 7 -7 12 -19 12 -27 0 -14 -1 -14
-10 -1 -5 8 -10 10 -10 4 0 -6 3 -14 7 -18 11 -10 12 -37 2 -30 -5 3 -9 0 -9
-6 0 -6 -5 -8 -12 -4 -7 4 -8 3 -4 -5 4 -6 12 -9 17 -6 5 4 9 1 9 -4 0 -6 -3
-11 -8 -11 -4 0 -7 -15 -7 -32 0 -22 -4 -32 -13 -30 -8 1 -11 -2 -7 -8 11 -18
14 -49 5 -55 -5 -3 -7 4 -5 16 2 12 1 19 -2 15 -13 -12 -13 -46 0 -46 8 0 7
-3 -3 -9 -8 -6 -18 -7 -24 -4 -5 3 -6 1 -2 -6 4 -6 11 -9 16 -6 5 3 11 1 14
-4 4 -5 -6 -8 -21 -6 -24 2 -25 1 -10 -10 22 -16 22 -29 0 -21 -15 6 -14 4 2
-14 16 -18 17 -20 2 -14 -14 5 -17 1 -15 -17 2 -19 -1 -23 -17 -21 -17 2 -16
0 5 -12 18 -11 21 -15 8 -16 -9 0 -20 -5 -24 -12 -5 -7 -3 -8 6 -3 8 5 11 3 8
-6 -3 -8 -10 -13 -16 -12 -7 2 -9 -4 -5 -14 4 -10 2 -14 -4 -10 -5 3 -10 -1
-10 -9 0 -9 6 -13 16 -9 9 3 5 -5 -9 -17 -14 -13 -19 -18 -11 -13 12 8 12 7 3
-11 -6 -12 -8 -24 -5 -28 3 -3 -1 -6 -10 -6 -9 0 -19 -5 -23 -12 -4 -6 -3 -8
3 -5 6 4 13 0 16 -8 4 -10 1 -12 -10 -8 -12 5 -14 3 -8 -7 6 -10 4 -12 -9 -7
-9 4 -14 3 -11 -2 3 -5 2 -12 -3 -15 -4 -2 -7 -21 -7 -40 1 -25 -3 -36 -12
-36 -9 0 -11 5 -7 13 4 6 3 8 -1 4 -11 -10 -16 -39 -6 -32 4 2 8 -2 8 -10 0
-8 -5 -11 -10 -8 -6 4 -8 -1 -4 -11 5 -11 3 -15 -5 -10 -8 5 -9 2 -4 -11 5
-15 4 -16 -9 -5 -13 11 -14 10 -9 -4 4 -11 2 -16 -7 -14 -8 2 -13 -3 -11 -11
4 -18 -18 -71 -29 -71 -5 0 -9 -5 -9 -11 0 -5 5 -7 12 -3 7 4 8 3 4 -5 -4 -6
-12 -9 -17 -6 -5 4 -9 1 -9 -6 0 -8 -5 -8 -17 2 -17 13 -17 12 -1 -6 13 -16
14 -22 3 -32 -7 -6 -15 -10 -18 -7 -3 3 -8 1 -12 -5 -3 -6 -1 -11 4 -11 6 0
11 -4 11 -9 0 -5 -7 -8 -16 -7 -9 0 -19 -6 -21 -14 -4 -13 -3 -13 6 0 7 9 11
10 11 3 0 -6 -5 -15 -10 -18 -6 -4 -7 -11 -4 -17 4 -6 -3 -5 -16 2 -20 11 -21
10 -10 -9 8 -17 8 -21 -2 -19 -8 2 -13 -6 -12 -19 0 -19 -2 -21 -15 -11 -9 7
-13 9 -9 4 9 -11 -23 -46 -35 -39 -6 3 -7 1 -3 -5 4 -6 14 -8 22 -5 9 3 6 -5
-9 -21 -13 -14 -27 -26 -31 -26 -14 0 -33 -25 -28 -39 3 -8 0 -11 -6 -7 -6 3
-16 -7 -23 -23 -10 -23 -16 -27 -27 -19 -7 6 -12 7 -11 2 4 -23 -2 -35 -13
-28 -8 5 -7 0 2 -11 14 -17 13 -18 -2 -13 -11 5 -18 0 -22 -18 -4 -13 -11 -24
-17 -24 -6 0 -7 -4 -4 -10 3 -5 0 -7 -9 -4 -12 5 -42 -30 -38 -46 0 -3 -6 -4
-15 -2 -8 2 -12 -1 -9 -6 7 -12 -48 -64 -59 -55 -4 5 -5 -1 -1 -11 6 -17 5
-17 -11 -5 -14 12 -16 12 -8 0 6 -11 4 -13 -10 -7 -15 5 -16 4 -5 -9 10 -13 9
-15 -8 -15 -15 0 -20 -5 -16 -15 5 -11 2 -13 -10 -9 -10 4 -18 0 -22 -10 -3
-9 -11 -13 -18 -9 -6 4 -6 1 2 -9 10 -13 10 -17 -4 -22 -9 -3 -24 -1 -33 6
-13 10 -14 10 -3 -2 14 -17 16 -34 2 -25 -5 3 -10 -2 -11 -12 0 -12 -2 -13 -6
-5 -4 10 -9 7 -17 -9 -6 -12 -20 -23 -31 -25 -11 -2 -21 -8 -23 -14 -2 -5 -8
-8 -12 -5 -5 3 -15 -4 -23 -15 -7 -11 -17 -17 -21 -13 -4 4 -4 -1 0 -12 4 -11
4 -17 -1 -13 -4 4 -16 -4 -27 -17 -12 -15 -25 -22 -35 -18 -13 5 -15 2 -10
-12 6 -15 5 -16 -8 -5 -12 10 -15 10 -15 -4 0 -9 -7 -16 -16 -16 -8 0 -13 -4
-10 -9 3 -5 -2 -8 -12 -7 -10 0 -17 -6 -16 -15 1 -12 -5 -16 -21 -14 -16 1
-22 -2 -18 -11 3 -8 0 -14 -7 -14 -9 0 -9 -4 1 -17 13 -15 12 -15 -11 -3 -23
12 -24 12 -11 -3 7 -10 9 -17 3 -17 -6 0 -9 -11 -7 -25 2 -22 0 -23 -13 -13
-13 11 -14 10 -5 -6 6 -10 8 -28 5 -38 -3 -11 1 -25 9 -30 11 -8 10 -9 -3 -4
-11 3 -15 0 -13 -7 11 -30 13 -67 4 -67 -6 0 -7 -5 -4 -10 4 -6 12 -7 18 -3 8
4 7 1 -1 -9 -14 -18 -14 -86 1 -106 8 -10 5 -15 -11 -19 -12 -3 -22 -10 -22
-15 0 -5 5 -6 10 -3 6 3 10 -3 10 -15 0 -13 4 -19 12 -14 7 5 8 3 4 -5 -5 -7
-15 -10 -24 -6 -12 4 -11 1 4 -16 14 -16 16 -23 6 -26 -10 -4 -10 -8 0 -21 10
-12 10 -14 1 -8 -7 4 -13 2 -13 -3 0 -6 6 -11 13 -12 8 0 8 -2 1 -5 -8 -3 -9
-16 -4 -40 7 -31 6 -35 -8 -30 -10 4 -6 -3 8 -15 l25 -21 -33 5 c-18 3 -30 1
-26 -4 3 -5 9 -7 14 -4 4 3 13 -2 20 -10 10 -12 9 -15 -6 -16 -16 0 -16 -2 4
-9 12 -5 22 -12 22 -14 0 -3 -6 -3 -14 0 -8 3 -17 0 -22 -7 -4 -7 -3 -10 3 -6
6 4 10 -10 11 -34 1 -22 7 -49 13 -61 8 -15 8 -19 0 -14 -21 13 -33 -5 -19
-27 16 -24 12 -61 -4 -51 -5 4 -2 -6 8 -22 19 -28 19 -28 -1 -20 -11 4 -16 4
-12 0 4 -4 -1 -17 -10 -28 -17 -20 -17 -20 1 -6 10 8 25 15 35 16 14 3 14 1
-1 -10 -14 -10 -15 -15 -5 -26 9 -10 9 -11 0 -6 -7 4 -13 2 -13 -3 0 -6 8 -12
18 -12 14 -1 14 -2 1 -6 -11 -3 -14 -12 -11 -33 2 -17 9 -27 15 -23 6 4 7 1 3
-6 -5 -7 -15 -10 -24 -6 -12 4 -12 1 4 -16 15 -17 15 -21 3 -17 -9 4 -16 1
-16 -7 0 -8 9 -12 21 -9 19 3 20 2 4 -10 -14 -10 -15 -15 -5 -26 10 -10 9 -11
-2 -5 -11 6 -13 4 -8 -9 4 -10 7 -22 7 -27 0 -6 5 -7 12 -3 7 4 8 3 4 -5 -4
-6 -13 -8 -19 -4 -7 4 -5 -2 3 -12 14 -17 13 -18 -5 -12 -17 6 -16 3 5 -15 16
-14 19 -19 8 -15 -10 4 -18 2 -18 -3 0 -6 5 -10 12 -10 6 0 4 -6 -7 -13 -14
-11 -15 -16 -5 -22 9 -5 11 -4 6 3 -11 18 0 14 15 -5 8 -9 9 -14 2 -10 -15 9
-21 -19 -12 -60 6 -27 4 -33 -10 -33 -11 -1 -9 -5 9 -16 14 -8 17 -13 8 -10
-10 3 -20 1 -23 -4 -4 -6 2 -10 11 -10 16 0 16 -1 -2 -16 -10 -8 -14 -13 -7
-10 6 4 14 2 18 -4 3 -5 0 -10 -7 -10 -8 -1 -5 -7 7 -17 16 -13 17 -15 3 -10
-18 6 -25 -7 -10 -17 4 -2 6 -28 5 -56 -2 -37 0 -49 8 -44 8 5 9 3 5 -5 -5 -7
-15 -10 -24 -6 -12 4 -12 1 4 -16 10 -12 14 -19 7 -16 -6 4 -14 3 -18 -3 -6
-9 8 -14 28 -11 5 1 6 -3 2 -9 -3 -6 -11 -7 -17 -4 -6 4 -5 -3 2 -16 7 -12 8
-20 2 -16 -5 3 -13 -1 -16 -10 -3 -8 -2 -12 4 -9 6 3 10 1 10 -5 0 -6 5 -8 12
-4 7 4 8 3 4 -5 -4 -6 -12 -9 -17 -6 -5 4 -9 1 -9 -4 0 -6 5 -11 12 -11 22 0
0 -11 -32 -16 -21 -4 -30 -2 -25 5 3 6 -1 11 -9 11 -9 0 -16 5 -16 11 0 5 -5
7 -12 3 -7 -4 -8 -3 -4 4 8 13 -31 55 -43 47 -5 -2 -11 2 -15 10 -3 8 0 15 6
15 6 0 8 3 5 6 -4 4 -14 1 -24 -7 -9 -8 -14 -9 -10 -3 4 7 -4 19 -18 28 -14 9
-25 23 -25 31 0 8 -3 14 -7 14 -20 -3 -34 2 -29 10 3 5 -1 12 -10 15 -10 4
-14 12 -10 22 6 15 4 15 -11 3 -15 -13 -16 -12 -11 9 4 12 2 20 -2 17 -5 -3
-10 -2 -13 2 -2 5 -2 2 -1 -4 2 -7 -1 -13 -6 -13 -6 0 -10 9 -10 19 0 11 -4
23 -10 26 -6 3 -8 -2 -5 -12 3 -10 -2 -3 -10 15 -15 33 -29 45 -18 16 4 -12
-2 -10 -20 7 -27 23 -39 41 -13 20 10 -8 16 -9 21 -1 4 6 3 10 -2 9 -15 -4
-63 20 -63 31 0 6 -4 9 -9 5 -5 -3 -13 0 -17 6 -4 8 -3 9 4 5 7 -4 12 -2 12 3
0 6 -9 11 -19 11 -11 0 -26 9 -34 20 -8 11 -18 17 -23 12 -4 -4 -2 1 5 11 12
15 11 17 -3 17 -10 0 -24 7 -33 15 -8 8 -19 13 -24 9 -5 -3 -9 -2 -8 3 4 22
-2 43 -11 38 -5 -3 -10 -1 -10 4 0 6 -6 11 -14 11 -8 0 -18 5 -22 12 -4 7 -3
8 4 4 8 -4 10 -2 6 8 -3 8 -12 12 -20 9 -8 -3 -14 0 -14 7 0 6 -5 8 -12 4 -9
-5 -8 -2 1 9 12 15 12 17 -3 11 -10 -4 -18 0 -22 10 -3 9 -10 14 -14 11 -4 -3
-14 3 -21 13 -13 15 -12 16 3 4 11 -9 18 -10 23 -2 4 6 3 10 -2 9 -20 -3 -53
15 -53 28 0 10 -6 13 -17 9 -10 -4 -14 -4 -11 0 11 10 -29 47 -43 39 -7 -5
-10 -4 -6 1 3 5 -1 20 -10 34 -10 18 -13 20 -9 5 5 -18 4 -17 -14 4 -11 12
-18 27 -15 31 3 5 0 12 -6 16 -8 4 -9 3 -5 -4 4 -7 1 -12 -9 -12 -9 0 -13 5
-10 10 3 6 -1 13 -9 16 -9 3 -16 13 -16 21 0 8 -4 12 -9 9 -13 -8 -71 42 -71
60 0 9 -4 12 -10 9 -5 -3 -10 -1 -10 5 0 6 -5 8 -12 4 -8 -5 -9 -2 -5 9 3 9 3
16 -1 15 -15 -3 -42 15 -42 28 0 8 -5 14 -11 14 -5 0 -7 6 -3 13 5 8 2 8 -9
-2 -15 -12 -17 -11 -17 8 0 12 -4 19 -10 16 -5 -3 -10 -1 -10 5 0 6 -4 8 -10
5 -5 -3 -10 1 -10 10 0 8 -7 18 -15 21 -8 4 -12 11 -9 16 4 6 -2 7 -17 3 -21
-7 -22 -6 -10 9 11 14 11 16 -2 16 -22 0 -62 24 -65 39 -3 14 -26 40 -39 44
-4 1 -7 6 -5 10 1 5 -6 6 -17 2 -11 -3 -25 1 -34 10 -10 9 -18 11 -22 5 -4 -6
-11 -8 -16 -4 -6 3 -6 11 -2 18 4 7 0 3 -9 -7 -10 -11 -18 -15 -18 -9 0 15
-32 24 -44 12 -8 -8 -5 -9 9 -5 15 5 16 4 6 -3 -7 -5 -27 -9 -42 -8 -16 1 -29
-2 -29 -7 0 -5 -8 -3 -17 4 -11 10 -14 10 -9 2 4 -7 2 -13 -3 -13 -6 0 -11 6
-12 13 0 9 -2 9 -6 -1 -2 -6 -10 -9 -16 -5 -7 4 -8 0 -4 -13 7 -18 7 -18 -8 0
-8 11 -15 14 -15 7 0 -7 -4 -10 -9 -6 -5 3 -13 1 -16 -5 -5 -8 -11 -7 -21 1
-11 9 -14 9 -14 0 0 -9 -5 -9 -21 0 -13 7 -19 7 -15 1 3 -6 2 -13 -4 -17 -5
-3 -10 -1 -10 6 0 10 -3 10 -12 1 -9 -9 -15 -9 -27 1 -12 9 -13 9 -7 0 4 -7 2
-13 -3 -13 -6 0 -11 6 -11 13 0 9 -3 8 -9 -2 -6 -9 -20 -12 -40 -9 -26 4 -31
2 -26 -11 4 -11 0 -10 -16 5 -12 10 -19 13 -14 5 6 -11 4 -13 -8 -8 -9 3 -19
2 -22 -3 -8 -13 -25 -13 -25 1 0 5 5 7 12 3 7 -5 8 -3 4 5 -6 9 -13 8 -28 -6
-15 -13 -22 -15 -25 -5 -3 6 -9 12 -14 12 -6 0 -8 -4 -5 -8 3 -5 -1 -9 -9 -9
-8 0 -15 5 -15 11 0 6 -4 5 -9 -3 -5 -8 -16 -11 -25 -8 -9 4 -16 1 -16 -6 0
-9 -2 -9 -9 1 -8 13 -49 11 -73 -4 -10 -6 -10 -4 0 8 10 13 10 18 1 24 -8 4
-9 3 -5 -4 4 -7 1 -12 -9 -12 -9 0 -14 -3 -12 -7 3 -5 -6 -9 -20 -10 -19 -1
-22 1 -12 8 18 11 2 11 -39 0 -18 -6 -30 -6 -27 -1 3 4 -2 11 -11 14 -11 4
-15 2 -11 -8 4 -9 0 -13 -11 -11 -9 2 -21 4 -25 4 -5 1 -5 5 -2 11 3 6 -1 7
-9 4 -9 -3 -14 -9 -12 -13 3 -4 -12 -6 -32 -5 -20 1 -45 3 -55 3 -12 1 -16 5
-11 14 5 8 2 8 -9 -2 -14 -11 -17 -11 -17 0 0 11 -2 11 -10 -1 -8 -12 -10 -12
-10 -1 0 11 -3 11 -15 1 -11 -10 -18 -9 -30 4 -20 19 -26 20 -19 3 3 -8 -2
-14 -11 -14 -8 0 -15 3 -15 7 0 11 -34 8 -49 -4 -8 -6 -12 -6 -9 -1 3 6 -1 17
-10 25 -14 13 -15 12 -9 -3 7 -18 -15 -20 -40 -4 -8 5 -13 3 -13 -4 0 -7 -8
-5 -22 7 -12 10 -18 13 -14 7 4 -8 1 -13 -9 -13 -10 0 -13 5 -9 12 5 7 3 8 -7
3 -22 -14 -50 -13 -56 1 -3 10 -10 11 -22 5 -10 -6 -23 -6 -32 0 -12 7 -12 9
0 9 8 0 12 2 9 5 -10 10 -38 -7 -31 -19 4 -7 1 -7 -9 1 -8 7 -18 10 -21 6 -4
-3 -7 -1 -7 5 0 7 -5 12 -11 12 -5 0 -8 -4 -5 -8 2 -4 -5 -9 -17 -9 -18 -2
-19 0 -7 8 12 8 8 10 -15 8 -49 -2 -66 1 -61 9 3 5 -1 9 -9 9 -8 0 -12 -3 -10
-7 2 -4 -2 -7 -10 -7 -8 0 -12 4 -9 9 3 4 2 8 -3 9 -4 0 -16 2 -26 4 -9 2 -15
-1 -11 -6 3 -5 0 -9 -5 -9 -6 0 -11 4 -11 10 0 5 -7 7 -16 3 -9 -3 -20 0 -24
7 -7 11 -12 11 -26 -1 -10 -8 -15 -9 -11 -2 5 7 1 12 -10 12 -37 0 -58 7 -65
21 -5 11 -7 10 -7 -5 -1 -14 -4 -16 -10 -7 -4 7 -26 14 -49 15 -22 0 -38 5
-35 10 3 5 -3 8 -13 7 -33 -4 -45 0 -39 10 3 6 2 10 -4 10 -5 0 -11 -6 -14
-12 -3 -10 -9 -9 -23 3 -10 9 -25 14 -33 11 -10 -3 -12 0 -7 14 6 17 5 17 -15
-2 -12 -10 -19 -13 -15 -6 4 6 2 12 -4 12 -6 0 -8 5 -4 12 4 7 3 8 -5 4 -6 -4
-9 -12 -6 -17 3 -5 -1 -6 -9 -3 -9 3 -16 11 -16 18 0 6 -5 4 -10 -4 -7 -11
-10 -11 -10 -2 0 7 -4 10 -10 7 -5 -3 -10 -2 -10 3 0 6 -9 8 -20 5 -12 -3 -20
0 -20 6 0 7 -6 11 -12 10 -29 -3 -49 2 -43 11 3 6 1 10 -5 10 -6 0 -8 5 -4 12
4 7 3 8 -5 4 -6 -4 -9 -11 -6 -16 3 -4 -4 -6 -15 -3 -11 3 -18 9 -15 13 2 4
-10 7 -28 8 -17 0 -33 6 -35 11 -2 6 -15 11 -28 11 -13 0 -24 4 -24 10 0 5 -7
7 -15 4 -8 -4 -17 1 -21 10 -5 14 -9 14 -22 4 -9 -8 -13 -8 -9 -2 4 7 -2 14
-14 17 -13 4 -18 10 -13 18 4 8 3 10 -5 5 -6 -4 -9 -12 -6 -17 11 -16 -7 -10
-22 9 -8 9 -11 11 -7 3 5 -10 3 -12 -5 -7 -7 5 -10 13 -8 20 3 7 -9 10 -34 10
-22 -1 -37 2 -34 6 3 4 -3 14 -12 21 -9 8 -14 9 -10 2 4 -6 -10 -3 -30 7 -21
10 -42 16 -47 12 -5 -3 -6 3 -2 13 6 16 4 16 -11 4 -14 -12 -16 -12 -9 0 6 9
5 12 -5 9 -7 -2 -29 6 -48 19 -18 13 -43 23 -55 23 -17 0 -18 2 -6 10 12 8 9
10 -13 10 -15 0 -30 7 -33 15 -4 8 -10 13 -14 10 -5 -3 -16 2 -24 11 -14 14
-31 21 -59 23 -5 1 -5 5 -2 11 3 6 -1 10 -9 10 -9 0 -16 6 -16 13 0 8 -4 7
-10 -3 -8 -13 -10 -12 -10 4 0 11 -3 16 -7 13 -3 -4 -12 1 -20 11 -8 9 -12 11
-8 5 4 -9 1 -11 -10 -7 -11 5 -13 10 -5 19 9 11 6 12 -11 8 -17 -5 -20 -3 -14
7 6 10 4 12 -8 7 -12 -4 -17 -1 -17 11 0 15 -2 15 -10 2 -6 -10 -10 -11 -10
-2 0 6 -6 12 -14 12 -7 0 -20 8 -27 18 -13 16 -13 16 6 2 18 -14 19 -14 7 2
-8 10 -17 17 -20 16 -20 -2 -32 3 -27 12 4 6 3 10 -2 9 -4 -1 -16 -1 -27 0
-15 1 -16 4 -7 15 10 12 8 13 -10 9 -15 -4 -20 -3 -15 5 5 8 2 10 -8 6 -14 -6
-21 5 -17 28 0 4 -7 4 -16 1 -12 -5 -14 -3 -8 7 6 9 4 11 -5 5 -8 -5 -17 -2
-24 7 -6 9 -20 17 -31 19 -11 3 -20 10 -20 17 0 6 -3 11 -6 10 -13 -6 -40 26
-34 40 5 13 3 13 -12 1 -15 -12 -16 -12 -10 5 5 13 3 17 -7 13 -9 -4 -25 6
-39 23 -14 16 -27 27 -30 24 -3 -3 -8 0 -13 7 -5 8 -3 10 6 4 9 -5 11 -4 6 3
-4 7 -14 12 -22 12 -8 0 -14 7 -14 16 0 8 -4 13 -9 9 -5 -3 -12 4 -16 15 -4
11 -10 18 -14 15 -5 -2 -20 9 -35 25 -26 30 -34 46 -16 35 6 -3 7 1 3 10 -4
13 -8 14 -13 4 -6 -9 -12 -9 -23 3 -11 11 -13 18 -5 26 8 8 4 9 -12 5 -16 -4
-21 -3 -16 5 4 7 2 12 -4 12 -7 0 -10 6 -7 14 4 10 0 14 -14 11 -12 -2 -19 2
-19 11 0 19 -25 45 -35 36 -4 -4 -6 -2 -5 3 5 24 -1 34 -17 28 -16 -6 -17 -5
-3 13 8 10 11 16 6 12 -12 -10 -49 28 -41 43 5 8 4 10 -3 5 -7 -4 -12 -2 -12
4 0 6 -5 8 -12 4 -10 -6 -10 -4 0 8 10 13 10 18 1 24 -8 4 -9 3 -5 -4 4 -7 3
-12 -2 -12 -14 0 -24 29 -15 43 4 7 -2 5 -13 -3 -10 -8 -16 -11 -12 -6 4 5 0
15 -8 23 -8 9 -13 22 -9 31 4 12 3 13 -9 3 -12 -10 -14 -9 -10 6 3 12 -5 24
-23 36 -15 10 -20 16 -10 13 9 -3 17 -1 17 4 0 6 -8 10 -17 10 -9 0 -14 2 -11
5 3 3 -8 20 -23 36 -16 17 -26 35 -23 40 3 5 -2 12 -11 15 -13 6 -14 8 -3 15
10 7 9 9 -4 9 -10 0 -17 3 -16 8 2 11 -14 46 -26 54 -7 5 -4 13 9 23 20 16 20
16 -1 6 -25 -12 -34 -6 -34 26 0 13 -5 23 -11 23 -5 0 -7 -5 -3 -12 4 -7 3 -8
-4 -4 -9 5 -9 13 -1 27 6 12 8 23 5 27 -3 3 -6 0 -6 -6 0 -7 -4 -12 -10 -12
-5 0 -10 14 -10 30 0 20 -5 30 -15 30 -8 0 -15 3 -16 8 0 4 -3 16 -5 27 -3 11
-6 26 -6 33 -1 6 -4 12 -8 12 -3 0 -12 16 -20 35 -7 19 -18 31 -24 28 -6 -3
-6 0 1 7 10 11 9 16 -5 27 -9 8 -11 12 -4 8 6 -3 12 -1 12 4 0 6 -8 11 -17 11
-15 0 -16 2 -3 10 10 6 11 10 3 10 -7 0 -13 7 -13 16 0 9 -5 12 -12 8 -9 -5
-9 -2 1 9 10 13 10 17 1 17 -9 0 -9 4 1 17 12 15 12 16 -3 11 -20 -8 -31 15
-15 32 9 10 9 11 0 6 -8 -5 -13 -1 -13 9 0 9 -4 14 -9 10 -6 -3 -8 6 -5 20 3
16 0 25 -8 25 -10 0 -10 2 0 9 11 7 11 9 -2 14 -9 4 -13 13 -10 22 4 9 1 15
-7 15 -11 0 -11 3 1 10 8 5 10 10 4 10 -7 0 -9 11 -6 26 3 19 1 25 -7 20 -15
-10 -14 7 2 23 10 11 10 13 0 7 -9 -5 -13 1 -13 18 0 14 -5 28 -10 31 -6 4 -8
11 -5 16 13 20 13 48 1 43 -7 -3 -13 2 -13 10 0 8 7 12 16 9 11 -3 10 0 -3 11
-20 16 -33 51 -15 40 5 -3 9 2 9 10 0 9 -4 16 -10 16 -5 0 -10 5 -10 11 0 5 4
8 8 5 4 -2 8 4 8 15 0 10 -3 19 -7 19 -4 0 -9 10 -12 23 -6 20 -5 21 7 4 13
-17 14 -16 12 7 0 13 -4 22 -7 20 -4 -2 -10 3 -13 12 -3 8 -2 12 3 9 5 -3 12
-1 16 5 3 5 -2 10 -12 11 -10 0 -13 3 -6 6 10 3 10 12 -1 38 -13 29 -13 33 0
28 10 -4 12 0 8 12 -4 10 -1 21 7 27 11 8 10 9 -3 4 -10 -3 -20 -1 -23 4 -4 6
1 10 10 10 9 0 14 4 11 8 -3 5 -7 21 -10 36 -4 20 -1 26 8 23 7 -3 13 1 13 9
0 7 -4 11 -9 8 -4 -3 -8 4 -8 16 0 12 5 18 10 15 5 -3 10 -1 10 4 0 6 -4 11
-10 11 -5 0 -10 5 -10 11 0 5 6 7 13 3 6 -4 3 3 -8 16 l-20 23 25 -13 c23 -12
24 -12 11 3 -7 10 -10 17 -7 17 4 0 2 8 -3 18 -7 13 -7 22 1 30 8 8 8 15 -2
27 -11 13 -11 16 0 13 7 -2 15 3 18 11 3 9 0 11 -9 7 -8 -4 -5 0 5 8 11 9 14
16 7 16 -7 0 -9 5 -6 10 4 6 9 8 13 6 4 -2 6 16 5 40 -1 48 16 116 27 109 12
-7 6 29 -5 37 -6 5 -3 8 7 8 14 0 16 4 8 25 -7 19 -6 23 5 19 10 -4 13 2 11
20 -2 14 1 26 5 26 5 0 9 5 9 11 0 5 -5 7 -12 3 -7 -4 -8 -3 -4 5 4 6 12 9 17
6 9 -6 13 9 10 29 -4 21 10 55 22 52 6 -1 9 -1 5 1 -11 6 -10 33 1 33 5 0 12
7 15 16 4 9 2 13 -5 8 -8 -4 -7 0 0 15 7 12 9 27 5 34 -5 6 1 5 11 -3 11 -9
16 -10 11 -2 -4 7 -2 12 6 13 10 0 10 2 1 6 -7 2 -13 9 -13 14 0 6 4 8 8 5 4
-2 14 4 21 16 9 15 9 18 0 13 -7 -5 -10 -3 -7 6 3 8 10 13 16 12 6 -2 9 4 6
12 -4 9 4 24 17 36 13 11 18 18 12 14 -7 -3 -13 -1 -13 4 0 6 4 11 9 11 5 0
11 9 14 21 4 14 10 18 19 13 10 -6 11 -5 1 7 -8 10 -9 19 -1 29 8 12 9 12 4
-3 -3 -11 -2 -16 4 -12 6 3 10 15 10 25 0 10 5 22 10 25 6 4 7 11 4 17 -4 6
-3 8 2 5 6 -3 15 3 22 13 10 17 9 18 -5 13 -15 -6 -16 -5 -3 9 8 9 19 13 24
10 5 -3 6 2 3 12 -4 10 -3 15 3 11 6 -3 10 3 10 14 0 12 5 21 11 21 5 0 7 5 3
12 -4 7 -3 8 4 4 8 -5 12 1 12 16 0 18 2 20 10 8 8 -12 10 -11 10 8 0 12 6 25
14 28 8 3 12 12 10 19 -3 7 4 16 15 20 12 3 19 10 16 15 -3 5 -1 11 5 15 6 4
7 11 4 17 -4 6 -2 8 4 4 6 -3 13 3 17 14 3 11 11 20 17 20 6 0 5 -7 -3 -17
-13 -16 -12 -17 3 -5 9 8 14 20 11 28 -3 8 4 24 16 35 11 11 21 24 21 29 0 6
7 10 16 10 11 0 15 6 11 20 -3 10 -2 19 2 18 20 -2 31 4 31 20 0 14 2 15 10 2
8 -13 10 -12 10 3 0 10 4 16 9 12 5 -3 13 0 17 6 4 8 3 9 -4 5 -7 -4 -12 -2
-12 4 0 6 7 13 15 16 8 4 12 11 8 18 -3 6 -3 8 2 4 4 -4 14 0 22 10 8 9 11 11
7 3 -5 -10 -3 -12 5 -7 7 5 10 14 7 22 -3 8 1 14 10 14 9 0 12 -5 8 -12 -4 -7
-3 -9 1 -5 8 7 15 27 17 53 1 7 12 11 24 9 19 -2 22 1 14 15 -8 15 -6 17 10
13 14 -4 20 0 20 11 0 14 11 20 31 18 4 -1 6 6 5 16 -1 11 6 16 17 16 14 -2
15 1 6 13 -7 8 -8 13 -3 11 12 -4 55 27 48 35 -9 8 19 3 36 -8 13 -8 13 -6 2
8 -15 18 -8 37 14 37 8 0 13 4 10 9 -9 14 26 23 37 9 6 -9 7 -8 3 5 -3 9 -1
17 4 17 6 0 9 6 8 13 -2 7 5 11 15 9 12 -2 20 4 24 17 3 11 11 17 17 15 17 -6
40 22 31 37 -6 8 -2 8 14 0 17 -10 20 -9 15 4 -4 11 0 15 17 15 12 0 20 3 16
6 -3 3 -1 12 6 19 9 10 14 9 24 -4 10 -14 11 -12 6 9 -3 14 -3 22 2 18 4 -4
16 2 28 12 16 16 23 17 35 7 13 -10 14 -9 4 9 -10 19 -8 21 11 21 41 1 46 3
41 17 -3 8 0 17 7 22 8 4 10 3 5 -4 -4 -7 -3 -12 3 -12 5 0 13 9 16 21 5 16
10 18 21 8 11 -9 14 -7 14 10 0 11 5 21 11 21 5 0 8 -4 5 -8 -3 -5 2 -9 10 -9
8 0 13 6 10 13 -5 14 21 27 35 18 5 -3 8 0 7 8 -2 7 4 13 12 13 8 0 21 8 28
17 8 11 21 15 40 12 20 -3 23 -2 12 6 -13 9 -7 14 13 11 4 0 7 4 7 10 0 6 9 9
20 6 11 -3 18 0 17 7 -1 6 6 11 15 11 9 0 20 4 25 9 5 5 2 6 -6 1 -10 -6 -12
-4 -7 4 5 7 14 10 22 7 8 -3 14 -1 14 5 0 6 5 7 10 4 6 -3 10 -1 10 4 0 6 12
11 26 11 18 0 25 4 21 14 -4 10 0 12 15 8 16 -4 19 -2 13 9 -7 12 -6 12 7 1
13 -10 18 -8 32 14 10 14 23 23 31 20 8 -3 16 -1 19 5 2 5 3 4 2 -3 -2 -7 -10
-12 -19 -10 -8 1 -19 -3 -23 -9 -4 -8 -3 -9 5 -5 6 4 19 2 27 -5 12 -10 15
-10 12 2 -2 9 4 13 17 11 11 -2 16 1 10 5 -12 10 -18 33 -8 32 5 -1 11 0 16 1
19 6 33 5 40 -5 5 -6 7 0 4 13 -3 14 -1 20 5 15 6 -3 17 2 25 12 7 11 13 14
13 8 0 -6 7 -13 14 -16 10 -4 13 -1 9 9 -3 7 -1 14 5 14 6 0 12 -6 15 -12 5
-17 36 7 47 37 8 19 9 19 9 -3 1 -13 5 -20 11 -17 6 4 8 10 5 15 -3 4 2 10 10
14 10 3 15 -1 16 -12 1 -11 4 -8 9 8 6 22 8 23 15 7 5 -13 10 -15 15 -7 6 10
24 16 53 19 4 1 7 8 7 17 0 8 5 12 10 9 6 -4 7 -11 4 -17 -4 -7 -2 -8 5 -4 6
4 8 12 5 18 -5 7 -1 9 9 5 10 -3 17 -2 17 4 0 6 5 7 10 4 6 -3 10 0 10 7 0 9
3 9 10 -2 6 -10 10 -11 10 -2 0 6 5 12 11 12 5 0 7 -6 4 -12 -4 -7 1 -4 9 6 9
11 16 16 16 12 0 -5 7 -3 15 4 8 6 19 9 25 5 5 -3 10 -2 10 4 0 5 -6 12 -12
14 -10 4 -10 6 -1 6 6 1 15 -4 18 -10 5 -7 13 -5 25 6 14 12 20 13 26 4 4 -7
3 -10 -4 -5 -6 3 -13 2 -16 -3 -4 -5 2 -8 11 -7 9 2 19 8 21 14 2 8 9 9 22 2
13 -7 21 -7 26 2 4 6 3 8 -4 4 -6 -3 -14 -1 -18 6 -4 7 -4 10 1 6 4 -4 16 -3
26 2 12 7 20 7 24 -1 5 -6 12 -4 21 8 7 10 14 14 14 9 0 -5 6 -3 14 3 10 9 16
9 21 1 5 -8 12 -5 21 7 14 17 15 16 9 -7 l-6 -25 18 23 c14 16 21 20 30 11 8
-8 13 -7 18 2 6 8 4 10 -5 4 -9 -6 -11 -4 -5 5 6 10 11 9 22 -5 12 -18 13 -17
13 5 0 23 0 23 16 4 12 -15 14 -15 11 -2 -6 17 8 19 32 4 11 -7 13 -5 9 5 -4
10 1 15 12 15 10 0 17 -4 14 -7 -2 -4 0 -10 6 -14 5 -3 10 0 10 8 0 22 29 29
46 12 21 -21 27 -19 14 4 -7 15 -7 19 5 17 8 -1 18 -6 22 -11 4 -4 2 -5 -6 0
-10 6 -12 4 -6 -5 6 -10 11 -10 20 3 7 10 18 17 25 17 10 0 10 -4 -1 -17 -7
-10 0 -7 15 7 16 14 26 19 22 13 -4 -7 -2 -13 3 -13 6 0 11 6 12 13 0 10 2 10
6 0 2 -7 9 -13 14 -13 6 0 7 4 4 10 -4 6 1 7 11 3 12 -4 15 -3 10 5 -5 8 -1
10 10 5 13 -5 15 -3 9 8 -7 11 -6 12 7 2 8 -7 18 -10 22 -6 4 4 4 -1 1 -12 -6
-16 -3 -16 15 5 19 21 21 22 16 5 -6 -20 -6 -20 9 -1 14 19 21 11 16 -18 -1
-5 5 -4 13 4 19 15 21 24 4 14 -7 -5 -8 -3 -3 5 5 9 11 9 17 3 6 -6 17 -8 26
-5 11 5 13 3 7 -7 -5 -9 -4 -11 4 -6 6 4 9 12 6 17 -7 11 -11 10 85 13 41 2
80 -1 87 -6 7 -6 14 -4 19 3 5 8 3 10 -7 4 -8 -5 -10 -4 -6 0 12 14 68 15 61
2 -5 -9 -4 -9 6 0 7 6 18 9 25 7 7 -3 16 -1 20 5 9 15 15 14 9 -2z m-304 -1
c0 -2 -8 -10 -17 -17 -16 -13 -17 -12 -4 4 13 16 21 21 21 13z m2525 -55 c3
-5 2 -12 -3 -15 -5 -3 -9 1 -9 9 0 17 3 19 12 6z m324 -184 c0 -9 -2 -8 -6 1
-2 6 -10 9 -15 6 -7 -4 -8 -2 -4 5 9 13 26 5 25 -12z m-3869 9 c0 -3 -4 -8
-10 -11 -5 -3 -10 -1 -10 4 0 6 5 11 10 11 6 0 10 -2 10 -4z m-30 -10 c0 -2
-7 -7 -16 -10 -8 -3 -12 -2 -9 4 6 10 25 14 25 6z m-130 -50 c0 -3 -4 -8 -10
-11 -5 -3 -10 -1 -10 4 0 6 5 11 10 11 6 0 10 -2 10 -4z m3305 -16 c3 -5 1
-10 -4 -10 -6 0 -11 5 -11 10 0 6 2 10 4 10 3 0 8 -4 11 -10z m-4461 -201 c-3
-5 -10 -7 -15 -3 -5 3 -7 10 -3 15 3 5 10 7 15 3 5 -3 7 -10 3 -15z m6161
-518 c3 -5 2 -12 -3 -15 -5 -3 -9 1 -9 9 0 17 3 19 12 6z m350 -501 c3 -6 -1
-7 -9 -4 -18 7 -21 14 -7 14 6 0 13 -4 16 -10z m-48 -1036 c-3 -3 -12 -4 -19
-1 -8 3 -5 6 6 6 11 1 17 -2 13 -5z m408 -132 c-3 -3 -11 0 -18 7 -9 10 -8 11
6 5 10 -3 15 -9 12 -12z m-8185 -393 c0 -5 5 -7 10 -4 9 6 14 -12 12 -45 0 -8
5 -18 11 -22 9 -6 8 -8 -2 -8 -11 0 -11 -3 0 -17 8 -9 9 -14 3 -10 -17 10 -12
-26 6 -41 8 -7 11 -12 5 -11 -24 3 -27 -2 -10 -15 18 -13 31 -71 13 -60 -4 3
-5 10 -2 16 5 7 2 8 -6 3 -10 -6 -9 -12 6 -24 10 -9 19 -23 20 -31 1 -38 18
-100 27 -100 5 0 3 -8 -4 -17 -12 -15 -12 -16 1 -8 13 8 13 7 0 -10 -8 -10
-10 -16 -5 -13 6 4 17 -3 24 -14 11 -18 11 -20 -3 -15 -14 5 -15 3 -6 -12 5
-11 15 -22 22 -24 8 -3 6 -6 -4 -6 -10 -1 -18 -5 -18 -11 0 -6 3 -9 8 -9 18 3
32 -2 32 -12 0 -5 -4 -8 -8 -5 -5 3 -9 -1 -9 -9 0 -8 4 -12 9 -9 4 3 8 -6 8
-19 0 -14 6 -27 14 -30 9 -4 12 -14 9 -26 -3 -12 -1 -21 6 -21 6 0 11 -5 11
-11 0 -5 -5 -7 -11 -4 -6 4 -5 -2 3 -14 7 -12 17 -21 22 -21 4 0 3 -6 -3 -13
-8 -10 -6 -19 10 -35 11 -12 16 -22 11 -22 -5 0 -9 -7 -9 -15 0 -12 3 -12 16
-2 12 10 14 9 9 -3 -7 -20 9 -63 21 -55 5 3 13 1 16 -5 4 -6 1 -9 -6 -8 -6 2
-14 -3 -17 -11 -3 -8 0 -11 7 -7 9 6 16 -18 13 -46 -1 -3 5 -12 14 -18 12 -11
13 -10 8 6 -3 10 3 6 14 -11 10 -16 16 -34 12 -40 -10 -12 14 -37 26 -27 5 4
3 0 -4 -10 -8 -10 -9 -17 -3 -20 6 -1 12 -15 13 -30 1 -15 6 -24 10 -22 4 3 5
12 2 22 -5 13 -4 14 4 3 5 -7 7 -21 5 -31 -3 -12 3 -24 16 -32 12 -7 21 -19
21 -26 0 -17 26 -43 34 -34 4 3 4 -1 1 -10 -4 -9 -1 -19 5 -23 9 -6 9 -10 -1
-17 -10 -7 -8 -9 7 -5 17 4 20 1 17 -14 -3 -11 0 -19 6 -19 7 0 9 5 5 12 -4 6
-3 8 4 5 5 -4 8 -16 5 -26 -3 -13 2 -23 16 -30 13 -8 18 -17 14 -28 -5 -13 -2
-15 11 -10 9 4 15 3 12 -2 -3 -5 1 -15 10 -22 10 -8 13 -22 10 -38 -3 -14 -3
-20 0 -13 8 18 27 15 20 -4 -3 -8 -2 -13 3 -10 4 3 19 -6 32 -21 13 -14 19
-23 13 -20 -7 4 -14 1 -17 -6 -3 -9 3 -13 17 -13 15 1 20 -4 18 -18 -2 -11 1
-15 7 -11 6 3 11 1 11 -5 0 -6 5 -8 10 -5 6 3 10 -3 10 -14 0 -12 7 -21 16
-21 8 0 12 -4 9 -10 -3 -5 -1 -10 6 -10 8 0 7 -5 -2 -17 -13 -15 -12 -15 11
-3 23 12 24 12 11 -4 -12 -14 -12 -16 3 -10 12 5 15 2 9 -12 -4 -11 -3 -15 4
-11 6 4 19 -5 29 -19 31 -43 45 -55 57 -47 9 5 9 3 0 -8 -8 -10 -9 -19 -1 -29
8 -12 9 -12 4 3 -10 31 12 18 23 -14 8 -22 15 -29 26 -25 11 4 14 2 9 -6 -5
-8 -2 -9 11 -4 16 6 16 4 4 -11 -12 -15 -12 -16 3 -10 12 4 15 2 12 -8 -4 -10
0 -13 14 -10 16 3 19 -1 16 -18 -2 -12 -2 -16 2 -9 8 17 25 15 18 -2 -3 -8 0
-17 7 -22 8 -5 10 -3 4 6 -5 9 -4 11 3 6 7 -4 12 -14 12 -22 0 -8 4 -13 8 -10
4 2 14 0 22 -5 12 -8 12 -12 3 -16 -7 -2 -13 -10 -13 -16 0 -8 4 -7 12 1 7 7
15 12 19 12 7 0 22 -40 20 -53 -1 -5 3 -6 8 -3 5 4 12 0 14 -6 4 -8 6 -9 6 -2
1 6 -6 17 -14 24 -8 7 -15 17 -15 23 0 5 10 -3 23 -19 12 -16 21 -32 19 -36
-1 -5 7 -8 19 -8 16 0 19 -4 14 -22 -6 -19 -5 -21 6 -10 14 13 30 16 28 5 -1
-5 -1 -17 1 -28 l1 -20 9 20 c8 19 9 18 9 -4 1 -21 3 -22 18 -10 9 8 14 10 11
4 -3 -5 4 -19 15 -30 11 -11 16 -14 12 -6 -5 9 2 7 18 -5 15 -10 27 -28 27
-39 l1 -20 9 20 c7 17 9 17 9 3 1 -10 7 -18 14 -18 8 0 7 -4 -3 -10 -8 -5 -10
-10 -5 -10 6 0 17 6 24 13 11 10 12 9 6 -2 -6 -11 -4 -13 8 -8 10 4 16 2 14
-5 -1 -7 3 -12 8 -13 22 -2 55 -31 56 -50 0 -11 3 -14 6 -7 2 6 9 12 14 12 6
0 7 -4 4 -10 -3 -5 3 -10 14 -10 12 0 26 -9 33 -20 7 -11 21 -20 31 -20 10 0
15 -4 12 -10 -3 -6 1 -7 9 -4 11 4 16 0 16 -12 0 -13 3 -15 8 -7 6 9 12 7 22
-7 8 -11 20 -20 28 -20 8 0 10 -5 6 -12 -5 -8 0 -7 11 2 11 9 16 10 11 3 -4
-8 -1 -13 9 -13 9 0 13 -5 9 -11 -4 -8 0 -9 15 -4 17 5 20 3 14 -11 -5 -14 -3
-15 18 -4 13 7 21 9 17 6 -10 -12 23 -45 38 -39 8 3 14 0 14 -7 0 -6 5 -8 10
-5 6 3 10 -1 10 -9 0 -9 5 -16 11 -16 5 0 8 4 5 8 -3 5 1 9 9 9 8 0 12 -4 9
-8 -3 -5 7 -11 21 -15 14 -3 25 -10 25 -16 0 -5 6 -8 13 -7 19 3 48 -12 41
-22 -3 -5 1 -6 9 -3 8 3 21 -2 30 -10 12 -12 17 -13 20 -3 3 6 6 2 6 -10 1
-12 5 -25 11 -28 5 -3 7 0 4 9 -4 10 0 14 14 13 11 0 18 -6 15 -13 -2 -7 5
-11 19 -10 17 1 23 -4 21 -19 -1 -20 -1 -20 13 -1 8 11 14 14 14 7 0 -7 4 -9
10 -6 5 3 7 0 4 -8 -3 -9 2 -13 18 -13 14 1 22 -4 20 -12 -2 -9 3 -10 16 -3
14 7 21 5 30 -9 7 -11 18 -17 27 -14 18 7 20 -7 3 -25 -11 -11 -9 -11 9 0 12
7 19 17 16 23 -3 5 -1 6 5 2 7 -4 12 -13 12 -20 0 -7 7 -13 15 -13 12 0 12 3
3 16 -9 12 -7 11 8 -1 11 -10 26 -18 33 -18 7 0 9 -5 5 -12 -6 -10 -4 -10 7 0
16 15 29 16 29 1 0 -5 -6 -7 -12 -3 -9 5 -9 2 1 -9 14 -18 26 -23 16 -8 -10
17 55 9 67 -8 10 -13 10 -14 -2 -3 -8 6 -19 12 -24 12 -23 -1 31 -24 59 -26
52 -3 55 -4 55 -18 0 -18 27 -29 36 -14 4 6 3 8 -4 4 -6 -3 -13 -2 -16 3 -4 5
2 8 11 6 10 -2 21 -4 26 -4 4 -1 7 -9 8 -18 0 -15 2 -15 9 2 5 11 9 14 9 8 1
-7 10 -13 21 -13 11 0 20 -5 20 -11 0 -8 6 -7 17 2 14 12 16 12 8 0 -6 -11 -4
-13 10 -7 16 6 16 4 4 -10 -13 -16 -12 -16 8 -6 27 15 36 15 28 2 -3 -6 -1
-10 4 -10 6 0 11 6 11 13 0 8 3 8 9 -2 5 -8 16 -11 24 -8 12 4 14 2 10 -11 -6
-15 -5 -16 12 -2 15 12 17 12 10 1 -6 -11 -4 -13 8 -8 9 3 27 2 39 -3 13 -5
17 -9 9 -9 -8 -1 -11 -4 -8 -7 4 -4 13 -1 22 6 11 9 15 9 15 1 0 -7 8 -11 18
-10 29 3 43 -1 38 -9 -3 -5 1 -9 9 -9 8 0 12 3 10 7 -5 9 33 6 41 -3 4 -4 1
-7 -6 -7 -7 0 -11 -3 -8 -6 4 -3 15 -1 27 5 16 9 22 8 29 -5 7 -12 11 -13 17
-5 5 9 13 7 28 -6 11 -10 17 -13 14 -6 -8 13 30 6 39 -8 3 -5 11 -9 17 -9 7 0
6 4 -3 10 -12 7 -10 9 7 7 12 0 19 -5 17 -9 -3 -4 0 -8 6 -8 6 0 8 -6 5 -12
-4 -7 0 -5 8 5 11 13 16 15 19 5 3 -7 16 -13 31 -13 14 -1 23 3 21 7 -3 4 0 8
5 8 6 0 11 -5 11 -11 0 -5 4 -8 9 -4 6 3 14 -3 20 -12 9 -16 10 -15 11 6 0 24
0 24 16 5 8 -10 12 -12 8 -4 -6 12 -5 13 7 4 8 -6 35 -10 61 -10 37 1 45 -1
36 -11 -8 -11 -7 -12 7 -7 14 6 16 4 11 -7 -4 -8 -1 -6 6 3 11 15 13 15 23 1
8 -10 17 -13 26 -8 24 16 61 15 55 0 -3 -8 0 -17 6 -21 6 -4 8 -3 5 3 -4 6 1
17 10 24 9 8 14 9 10 3 -4 -7 0 -15 9 -18 8 -3 13 -2 10 3 -3 5 1 11 8 14 11
4 14 0 11 -16 -4 -19 -2 -20 8 -7 12 15 72 16 63 1 -3 -3 4 -7 14 -7 14 0 16
3 8 13 -8 10 -7 12 6 7 9 -3 16 -11 17 -18 0 -6 4 -2 9 9 7 17 9 17 9 3 1 -21
12 -23 30 -5 11 10 13 10 7 0 -4 -7 -2 -13 3 -13 6 0 11 5 11 11 0 5 5 7 10 4
6 -4 8 -10 5 -15 -8 -12 34 -3 51 11 11 9 15 8 19 -3 3 -8 12 -15 20 -15 8 0
12 4 9 8 -2 4 0 10 6 14 5 3 10 1 10 -4 0 -6 12 -11 26 -11 14 0 23 -4 20 -9
-4 -5 0 -12 6 -15 7 -3 2 -3 -11 0 -20 5 -23 3 -17 -11 5 -13 2 -16 -10 -11
-15 6 -15 4 -3 -11 9 -11 10 -14 2 -9 -8 4 -13 1 -14 -8 -1 -9 -2 -21 -3 -28
0 -6 -8 -13 -16 -15 -13 -4 -13 -3 0 7 13 10 13 11 0 7 -8 -2 -14 -11 -12 -21
2 -9 -4 -16 -13 -16 -9 0 -13 -5 -10 -10 4 -6 12 -7 18 -4 7 4 8 3 4 -2 -5 -5
-14 -9 -20 -9 -7 0 -12 -7 -12 -15 -1 -8 -6 -14 -13 -13 -7 2 -11 0 -11 -5 3
-18 -2 -32 -11 -32 -5 0 -7 8 -4 18 5 14 4 14 -4 2 -6 -8 -7 -19 -2 -25 12
-14 -24 -57 -37 -44 -7 7 -10 2 -8 -15 2 -19 -1 -23 -13 -19 -10 4 -13 2 -8
-5 4 -7 2 -12 -4 -12 -6 0 -8 -5 -4 -12 5 -9 2 -8 -9 1 -15 12 -17 12 -11 -3
4 -11 -2 -26 -15 -40 -12 -12 -18 -25 -15 -29 3 -3 -5 -3 -18 0 -12 3 -20 2
-16 -2 4 -5 -8 -23 -27 -42 -21 -20 -32 -39 -28 -46 4 -7 -1 -6 -11 2 -9 8
-16 10 -15 5 4 -21 -2 -34 -15 -34 -8 0 -17 -7 -20 -16 -3 -8 -10 -12 -16 -9
-9 6 -15 -8 -11 -29 1 -5 -4 -4 -13 3 -15 13 -32 -1 -21 -18 3 -5 1 -12 -5
-16 -5 -3 -10 -1 -10 5 0 6 -4 9 -9 5 -6 -3 -8 -15 -6 -26 4 -17 2 -19 -10 -9
-12 10 -15 10 -15 0 0 -7 -7 -10 -15 -6 -13 5 -14 2 -4 -17 11 -20 11 -21 -4
-8 -15 11 -17 11 -17 -2 0 -9 -5 -19 -12 -23 -6 -4 -8 -3 -5 3 3 5 0 10 -7 10
-7 0 -13 -7 -12 -16 1 -10 -9 -17 -23 -19 -19 -3 -21 -6 -10 -13 11 -6 8 -9
-10 -9 -16 0 -21 -4 -17 -15 3 -8 2 -14 -2 -14 -22 4 -32 -2 -26 -13 5 -8 0
-7 -11 2 -15 12 -17 12 -10 1 6 -11 4 -13 -10 -7 -15 5 -16 4 -6 -8 11 -13 9
-15 -9 -11 -12 2 -23 -2 -27 -11 -3 -8 -11 -13 -18 -10 -16 6 -48 -27 -38 -39
5 -5 0 -3 -10 4 -9 8 -20 11 -24 7 -3 -3 -1 -6 5 -6 7 0 12 -5 12 -11 0 -6 -7
-9 -15 -5 -8 3 -14 0 -12 -6 1 -6 -4 -13 -12 -16 -8 -3 -11 0 -7 7 4 7 1 9 -8
5 -9 -3 -12 -12 -8 -22 5 -15 4 -16 -13 -2 -10 8 -16 10 -12 3 4 -7 -4 -16
-22 -24 -16 -7 -27 -17 -25 -21 3 -4 -4 -8 -15 -8 -11 0 -23 -5 -26 -11 -4 -6
-13 -8 -20 -5 -7 2 -22 -4 -34 -15 -12 -11 -26 -17 -31 -14 -6 3 -10 -1 -10
-10 0 -9 -4 -14 -9 -11 -5 3 -12 -1 -15 -10 -3 -8 -10 -13 -15 -10 -5 3 -14
-1 -20 -8 -7 -8 -23 -13 -36 -11 -17 1 -25 -3 -26 -14 0 -10 -2 -11 -6 -4 -3
10 -8 9 -20 -2 -8 -8 -19 -13 -24 -10 -5 4 -9 1 -9 -5 0 -6 -4 -8 -10 -5 -5 3
-10 0 -10 -7 0 -8 -3 -9 -8 -3 -12 17 -37 11 -34 -8 2 -9 -1 -17 -5 -16 -4 1
-10 0 -13 -1 -10 -3 -45 -11 -57 -12 -7 -1 -13 -5 -13 -9 0 -4 -13 -10 -30
-14 -16 -4 -30 -11 -30 -17 0 -6 -3 -8 -6 -5 -4 4 -1 13 6 22 7 8 8 15 4 15
-5 0 -15 -9 -22 -20 -7 -12 -18 -17 -29 -13 -11 4 -14 3 -9 -5 5 -8 0 -11 -16
-9 -15 1 -22 -3 -20 -11 1 -8 -2 -11 -8 -7 -6 3 -7 12 -4 18 4 7 -5 1 -19 -12
-15 -14 -27 -19 -27 -12 0 7 -5 9 -10 6 -6 -4 -8 -11 -5 -16 3 -5 -1 -6 -9 -3
-9 3 -13 11 -10 18 2 6 -2 1 -11 -11 -13 -18 -21 -20 -40 -13 -18 7 -23 6 -19
-4 3 -7 -2 -13 -10 -13 -8 0 -13 3 -11 7 2 3 -5 6 -15 6 -15 0 -17 -3 -7 -16
6 -8 7 -12 3 -8 -5 4 -15 3 -23 -4 -11 -9 -12 -7 -7 8 5 17 4 17 -8 3 -14 -17
-42 -14 -32 3 4 7 2 8 -5 4 -6 -4 -9 -11 -6 -16 3 -5 1 -11 -5 -15 -5 -3 -10
0 -10 7 -1 9 -4 8 -10 -3 -6 -11 -18 -15 -36 -11 -21 4 -25 2 -19 -9 6 -11 5
-12 -5 -2 -11 10 -17 10 -29 0 -12 -10 -13 -9 -7 3 4 8 0 6 -8 -4 -11 -14 -16
-15 -16 -6 0 9 -5 8 -16 -6 -8 -10 -13 -13 -9 -6 3 6 1 12 -4 12 -6 0 -11 -6
-11 -12 0 -9 -3 -9 -9 1 -8 12 -12 12 -25 2 -11 -9 -16 -10 -16 -2 0 6 -5 11
-11 11 -5 0 -7 -5 -4 -10 6 -10 -21 -14 -59 -10 -12 1 -16 -2 -11 -12 6 -10 5
-11 -5 -1 -11 10 -17 10 -29 0 -12 -9 -13 -9 -7 1 4 6 3 12 -3 12 -5 0 -11 -6
-14 -12 -3 -10 -7 -10 -17 -1 -10 9 -18 8 -36 -4 -13 -8 -24 -12 -24 -8 0 4
-7 1 -16 -6 -15 -12 -16 -11 -10 11 5 16 4 20 -2 12 -5 -7 -18 -15 -28 -17
-10 -2 -19 -4 -19 -5 0 -9 -41 -6 -47 3 -6 9 -8 8 -8 -3 0 -13 -1 -13 -10 0
-6 9 -10 10 -10 3 0 -7 -10 -10 -26 -7 -19 3 -24 1 -19 -8 4 -7 0 -5 -8 5 -14
17 -15 17 -22 0 -7 -17 -8 -17 -15 2 -5 11 -9 14 -9 6 -1 -8 -8 -11 -22 -8
-15 4 -19 2 -15 -8 4 -11 -1 -11 -30 1 -22 9 -34 11 -34 3 0 -6 -9 -8 -22 -3
-35 11 -62 11 -73 -1 -5 -6 -9 -8 -8 -6 2 2 -2 10 -8 17 -9 11 -16 10 -37 -4
-14 -9 -23 -12 -19 -6 4 7 0 15 -9 18 -8 3 -12 2 -9 -4 4 -6 -5 -10 -20 -10
-14 0 -24 3 -22 8 3 4 -6 8 -19 8 -23 2 -24 1 -7 -12 16 -13 16 -13 -7 -5 -14
4 -35 7 -47 5 -12 -2 -25 1 -28 7 -5 6 -12 6 -23 -3 -12 -10 -14 -10 -8 0 4 6
2 12 -3 12 -6 0 -11 -6 -11 -12 0 -9 -3 -9 -9 1 -5 8 -19 15 -30 16 -11 1 -17
-3 -14 -8 4 -7 -1 -7 -13 -2 -10 4 -27 7 -37 7 -9 0 -15 3 -13 7 3 4 -1 8 -9
8 -8 0 -12 -4 -9 -9 3 -4 1 -8 -5 -8 -5 0 -12 6 -15 13 -5 9 -7 9 -12 0 -4
-10 -10 -9 -22 3 -11 12 -17 13 -20 5 -3 -8 -9 -6 -18 6 -13 17 -14 17 -8 -2
5 -19 5 -19 -9 -3 -10 13 -16 15 -25 6 -9 -9 -12 -9 -12 1 0 11 -3 11 -17 0
-11 -10 -14 -10 -9 -1 5 9 -3 12 -31 13 -21 1 -42 0 -48 -1 -5 -1 -21 -3 -35
-5 -14 -2 -27 -5 -30 -6 -3 -1 -9 -3 -15 -4 -5 -2 -13 -4 -17 -5 -5 -1 -13 -3
-20 -4 -6 0 -12 -10 -14 -20 -4 -26 -25 -37 -43 -23 -12 10 -13 9 -2 -10 10
-20 9 -22 -5 -16 -12 4 -15 3 -10 -6 5 -8 1 -14 -13 -18 -11 -3 -18 -10 -14
-16 4 -6 0 -8 -10 -4 -18 7 -42 -26 -32 -43 4 -6 -1 -7 -11 -3 -13 5 -15 3 -9
-7 5 -9 4 -11 -3 -6 -7 4 -12 2 -12 -3 0 -6 -5 -11 -11 -11 -5 0 -7 5 -3 12 4
7 3 8 -4 4 -6 -4 -9 -13 -6 -20 7 -19 -16 -32 -28 -15 -6 10 -7 7 -3 -10 5
-16 4 -21 -4 -17 -6 4 -11 2 -11 -4 0 -6 -5 -8 -12 -4 -7 5 -9 2 -5 -9 4 -12
2 -14 -11 -10 -15 6 -16 5 -2 -12 14 -17 14 -18 -7 -6 -19 10 -22 9 -17 -4 4
-8 1 -15 -6 -15 -6 0 -8 -5 -4 -12 5 -9 2 -8 -9 1 -15 12 -17 12 -10 -4 5 -14
3 -17 -10 -12 -9 3 -19 1 -23 -5 -5 -7 -2 -8 6 -3 8 5 11 3 8 -6 -3 -8 -11
-14 -19 -14 -8 -1 -13 -7 -11 -14 1 -7 -2 -10 -8 -6 -5 3 -10 1 -10 -5 0 -7
-7 -9 -16 -6 -14 5 -15 4 -4 -9 7 -8 10 -16 6 -16 -3 -1 -10 -3 -16 -4 -5 -1
-15 -3 -21 -4 -5 0 -7 -6 -4 -11 3 -6 -4 -10 -17 -10 -19 0 -20 -2 -8 -11 12
-9 11 -10 -7 -6 -20 4 -21 3 -12 -15 9 -17 8 -18 -9 -9 -17 9 -19 8 -15 -9 3
-12 0 -20 -6 -20 -7 0 -10 4 -6 9 3 5 2 12 -3 15 -4 2 -9 -5 -9 -16 -2 -26
-33 -60 -50 -54 -7 3 -12 2 -12 -2 3 -20 -2 -33 -11 -27 -5 3 -10 2 -10 -2 0
-5 -7 -18 -16 -29 -8 -10 -12 -12 -8 -4 7 12 5 13 -8 3 -8 -7 -18 -10 -21 -6
-4 3 -7 1 -7 -5 0 -7 6 -12 13 -13 8 0 7 -2 -2 -6 -8 -3 -25 -17 -37 -30 -14
-15 -28 -22 -35 -17 -8 4 -9 3 -5 -4 4 -7 2 -12 -4 -12 -6 0 -9 -4 -6 -9 3 -5
-1 -14 -9 -21 -8 -7 -15 -9 -15 -5 0 5 -8 -2 -19 -13 -19 -22 -37 -30 -26 -12
3 6 1 10 -5 10 -6 0 -8 -11 -6 -24 3 -18 1 -23 -10 -19 -8 3 -14 0 -14 -7 0
-7 -7 -10 -16 -6 -15 6 -15 4 -3 -11 12 -15 12 -16 -4 -10 -10 4 -16 3 -13 -2
8 -12 -21 -34 -34 -26 -5 3 -10 2 -10 -4 0 -5 6 -12 13 -15 6 -4 2 -4 -11 -2
-12 2 -20 1 -18 -3 3 -4 1 -13 -4 -21 -7 -11 -11 -11 -24 -1 -11 9 -16 10 -16
2 0 -6 4 -11 8 -11 5 0 9 -6 9 -14 0 -8 -7 -11 -18 -9 -14 4 -17 0 -12 -19 3
-17 2 -19 -5 -9 -6 8 -15 10 -22 6 -8 -5 -11 -4 -6 3 3 5 3 12 -1 15 -5 2 -3
2 4 1 7 -2 10 3 6 12 -3 7 -9 14 -15 14 -5 0 -2 8 7 17 16 16 16 17 -1 30 -16
12 -16 13 -1 13 9 0 17 5 17 11 0 5 -4 7 -10 4 -5 -3 -10 -3 -11 2 -7 67 -6
73 15 67 19 -5 19 -3 -3 14 -18 14 -20 21 -10 24 10 4 11 8 3 19 -13 17 -12
28 4 56 10 18 9 24 -5 32 -17 10 -17 10 -1 11 27 0 30 18 8 40 -18 18 -18 20
-2 20 16 1 16 1 -1 11 -9 6 -15 15 -11 21 4 6 10 5 15 -3 6 -10 9 -10 9 -2 0
7 -8 17 -17 22 -15 8 -15 11 -3 12 8 1 18 1 21 1 3 -1 6 6 6 13 0 10 -4 12
-12 5 -20 -16 -26 1 -7 19 10 9 13 12 6 8 -7 -4 -15 -4 -18 2 -3 5 0 12 6 15
10 5 10 7 -1 12 -11 5 -9 10 9 19 19 10 20 13 6 18 -11 5 -15 3 -10 -5 5 -7 3
-8 -5 -3 -9 5 -10 10 -2 18 15 15 14 30 -1 21 -10 -6 -10 -4 0 7 15 16 16 33
1 24 -6 -4 -5 2 2 13 7 12 17 18 21 16 15 -9 8 3 -9 17 -10 8 -14 9 -10 2 4
-6 3 -14 -2 -17 -17 -11 -5 24 12 37 16 11 16 14 2 32 -16 19 -16 19 -5 -2 8
-18 8 -23 -3 -23 -17 0 -15 42 1 48 7 2 12 8 12 13 0 4 -8 6 -17 3 -15 -5 -15
-3 1 10 19 15 19 16 1 16 -18 0 -18 1 0 20 18 20 18 21 -1 14 -18 -7 -18 -6
-2 12 17 17 17 19 0 38 -9 11 -11 16 -4 12 14 -8 17 10 3 18 -13 9 -1 47 13
40 6 -3 2 2 -8 10 -17 14 -17 16 -4 16 27 0 30 18 8 40 -15 15 -17 20 -5 20 8
0 15 5 15 11 0 5 -4 8 -9 4 -5 -3 -12 -1 -16 5 -3 5 2 10 12 10 17 1 17 1 0
11 -17 10 -17 11 1 27 10 9 13 14 7 10 -20 -13 -26 4 -7 19 9 8 12 12 5 9 -6
-4 -14 -2 -18 4 -3 5 1 10 9 10 9 0 16 5 16 11 0 5 -4 8 -9 4 -5 -3 -12 -1
-16 5 -3 5 2 10 11 10 16 0 16 1 -2 15 -18 13 -11 20 17 17 3 -1 6 6 6 13 0
10 -4 12 -12 5 -7 -5 -15 -7 -18 -3 -4 3 1 12 11 20 9 7 13 13 7 12 -23 -3
-29 2 -15 12 11 8 12 12 2 16 -9 3 -7 9 6 21 9 10 13 14 8 10 -21 -16 -28 -7
-11 12 18 20 18 21 0 14 -12 -5 -16 -4 -11 4 3 6 2 13 -2 16 -5 3 -7 18 -4 32
3 19 1 25 -7 20 -14 -9 -14 -1 0 27 9 18 9 20 -2 10 -19 -19 -29 -16 -29 8 0
11 -4 18 -8 15 -5 -3 -15 6 -22 19 -7 13 -20 27 -29 30 -10 4 -6 -4 9 -21 l25
-27 -27 19 c-15 10 -28 28 -28 39 -1 11 -4 14 -7 7 -3 -9 -9 -7 -21 6 -10 10
-12 11 -7 3 7 -10 1 -8 -17 4 -15 11 -28 25 -28 31 0 6 -8 18 -17 25 -16 13
-17 12 -4 -3 20 -27 6 -22 -24 7 -14 14 -25 22 -25 18 0 -4 -5 0 -11 10 -5 9
-7 22 -3 29 4 6 3 8 -4 4 -6 -3 -14 -2 -17 4 -5 8 -11 7 -21 -1 -9 -7 -14 -8
-12 -3 4 14 -70 87 -81 79 -7 -4 -8 0 -4 11 5 13 3 15 -7 9 -9 -5 -11 -4 -6 3
4 7 2 12 -4 12 -7 0 -9 7 -6 16 5 13 4 14 -7 6 -18 -15 -30 -3 -15 15 8 11 7
12 -6 7 -19 -7 -21 7 -3 25 10 11 8 11 -9 0 -20 -11 -25 -9 -55 26 -19 21 -33
44 -31 52 2 7 -6 13 -18 13 -12 0 -18 5 -15 10 3 6 1 10 -4 10 -6 0 -11 7 -11
15 0 8 -9 19 -20 25 -11 6 -20 15 -20 21 0 6 5 7 10 4 6 -3 10 -1 10 5 0 6 -6
10 -12 9 -26 -3 -39 1 -33 11 7 12 -19 53 -28 43 -13 -12 -7 13 6 27 6 8 2 6
-11 -5 -13 -11 -23 -15 -22 -10 5 22 -1 46 -8 41 -5 -3 -15 6 -22 19 -7 13
-18 22 -23 18 -6 -3 -7 -1 -3 6 4 6 13 8 19 5 7 -4 -1 6 -16 23 -15 17 -27 35
-25 40 2 6 -6 19 -17 29 -12 11 -16 15 -9 11 7 -5 15 -2 20 5 4 7 4 10 0 6
-14 -12 -64 42 -59 63 3 10 10 19 16 19 6 0 7 3 4 6 -4 4 -13 1 -21 -5 -21
-18 -29 4 -9 25 16 16 16 16 -7 9 l-25 -8 20 22 c11 13 15 22 10 21 -23 -5
-45 1 -45 11 0 5 6 7 13 3 14 -9 -9 24 -33 45 -13 12 -13 13 3 8 9 -4 17 -2
17 3 0 6 -8 10 -17 10 -17 1 -17 2 1 15 18 13 17 14 -9 21 -20 5 -23 9 -13 15
10 7 10 9 0 9 -7 0 -10 5 -7 10 3 6 0 10 -7 10 -9 0 -9 3 2 10 13 8 13 10 -1
10 -9 0 -16 7 -16 15 0 9 5 12 12 7 6 -4 1 2 -11 13 -18 15 -20 24 -13 38 6 9
6 17 2 17 -4 0 -1 5 7 11 13 9 13 10 0 6 -8 -2 -14 -10 -12 -16 1 -7 -2 -10
-7 -7 -5 3 -8 26 -8 50 2 32 -1 42 -9 35 -8 -6 -10 -1 -8 18 1 15 -4 35 -12
44 -12 13 -12 19 -3 25 8 4 10 3 5 -4 -4 -8 0 -12 10 -12 14 0 15 3 6 12 -9 9
-9 15 0 27 10 13 10 14 -2 4 -18 -17 -27 -16 -27 2 0 8 5 11 10 8 5 -3 7 0 5
8 -3 8 -10 13 -16 12 -6 -2 -9 4 -5 12 4 13 8 13 22 3 14 -12 15 -11 2 5 -8
10 -21 15 -30 12 -11 -3 -9 0 4 11 14 11 16 18 8 21 -7 3 -13 9 -13 14 0 6 6
7 13 3 6 -4 5 1 -4 12 -16 20 -19 60 -6 82 5 7 3 12 -5 13 -7 0 -4 4 7 9 17 7
17 9 3 9 -21 1 -23 12 -6 29 9 9 9 12 -1 12 -7 0 -10 4 -6 9 3 5 1 13 -5 16
-8 5 -7 12 2 22 15 18 20 45 6 37 -15 -10 -5 30 12 43 13 11 13 12 -2 13 -17
0 -19 23 -3 37 4 4 5 2 0 -6 -5 -9 -4 -12 3 -7 6 4 9 13 6 21 -4 8 -10 12 -15
9 -5 -3 -6 2 -3 10 3 9 13 16 22 16 15 0 8 14 -9 16 -5 1 -12 2 -16 3 -5 1 3
11 17 22 21 17 22 20 5 15 -20 -6 -20 -6 -1 9 11 8 15 15 8 15 -7 0 -9 13 -6
38 3 20 6 42 7 49 0 7 4 10 9 7 4 -3 8 7 8 21 0 17 4 24 12 19 7 -4 8 -3 4 4
-14 24 -15 51 -1 46 7 -3 19 4 25 15 8 16 8 21 -1 19 -6 -2 -14 3 -17 11 -3
10 0 12 11 8 16 -6 17 8 3 32 -7 11 -5 13 9 7 15 -5 16 -4 5 9 -10 12 -9 15 6
15 16 0 17 2 4 10 -13 9 -13 10 0 10 13 0 13 1 0 10 -13 9 -7 14 13 11 4 0 7
6 7 15 0 9 -5 12 -12 8 -9 -5 -9 -3 1 9 7 9 17 15 21 12 5 -3 12 0 16 6 4 8 3
9 -4 5 -7 -4 -12 -1 -12 8 0 9 5 16 10 16 7 0 6 8 -1 23 -12 21 -11 21 6 7 17
-14 18 -13 12 4 -4 10 -2 25 4 32 6 8 9 21 5 29 -4 13 -2 14 14 5 16 -9 18 -8
14 5 -4 9 2 25 12 36 17 19 17 20 -2 14 -13 -4 -11 -2 5 8 18 11 20 16 10 20
-10 4 -8 6 5 6 15 1 16 4 6 16 -11 13 -10 14 3 9 12 -4 15 -1 12 15 -3 14 1
18 11 14 10 -4 12 0 8 11 -5 13 -2 15 12 9 17 -6 18 -5 4 12 -12 15 -12 17 -1
10 11 -6 13 -4 8 8 -3 10 -2 17 4 17 6 0 8 4 4 9 -3 5 -1 12 5 16 6 4 7 11 4
17 -4 7 -2 8 5 4 9 -6 9 -11 0 -22 -7 -9 -8 -14 -1 -14 6 0 14 9 17 20 4 11
11 17 17 14 7 -4 8 -2 4 5 -4 6 -13 8 -19 4 -7 -4 -6 0 2 10 7 9 17 15 21 12
4 -3 10 2 13 10 4 8 1 13 -6 11 -7 -1 -9 -1 -4 1 4 3 5 8 2 13 -3 4 4 6 15 3
12 -3 20 0 20 6 0 7 -5 9 -11 5 -6 -3 -3 5 6 20 10 14 23 26 31 26 7 0 16 5
20 12 4 7 3 8 -4 4 -7 -4 -12 -3 -12 2 0 5 9 12 21 15 12 3 18 10 15 16 -4 5
-2 12 4 16 6 4 7 11 4 17 -4 6 3 5 16 -2 20 -11 21 -10 10 9 -8 17 -8 21 2 19
7 -2 16 -7 20 -13 5 -6 8 -6 8 2 0 6 -4 15 -10 18 -5 3 -10 12 -10 18 0 8 3 8
8 2 14 -20 30 -15 25 8 -3 16 -2 18 5 9 7 -11 11 -9 15 8 3 12 10 19 16 16 5
-4 13 -1 17 5 4 7 3 9 -3 6 -6 -4 -13 0 -16 8 -4 9 -1 12 7 9 7 -3 16 2 20 11
4 11 12 15 22 11 14 -6 15 -4 4 9 -11 13 -11 16 0 13 8 -2 14 4 15 12 0 9 8
14 19 12 11 -2 15 1 11 7 -3 6 -1 11 5 11 12 0 40 24 40 35 0 3 -5 3 -12 -1
-7 -4 -8 -3 -4 4 4 6 13 9 21 5 10 -3 15 1 15 13 0 16 2 17 10 4 8 -12 10 -10
10 9 0 20 2 22 15 11 9 -7 18 -10 22 -6 3 3 1 6 -5 6 -7 0 -12 5 -12 11 0 7 9
9 21 6 12 -3 18 -3 15 0 -3 4 0 13 7 22 11 14 10 15 -8 1 -18 -14 -19 -14 -7
2 8 9 19 15 27 12 7 -3 21 8 31 26 12 20 25 30 36 27 12 -4 15 1 13 15 -3 16
-1 17 10 8 10 -8 15 -8 21 1 5 8 3 9 -6 4 -9 -5 -11 -4 -6 3 4 7 13 12 21 12
8 0 17 5 21 12 5 7 3 8 -6 3 -9 -5 -11 -4 -6 3 5 9 13 9 26 2 16 -9 18 -8 13
5 -4 11 1 18 16 22 11 3 18 9 16 14 -3 4 3 6 15 4 11 -2 19 -1 19 3 -4 26 2
32 21 22 16 -9 18 -8 14 5 -4 10 -2 15 7 13 8 -2 13 2 12 8 -1 7 5 11 15 10 9
0 16 4 15 11 -2 7 7 10 21 7 25 -4 61 21 51 35 -2 5 6 7 20 6 18 -3 22 1 17
13 -5 15 -4 15 11 3 15 -12 17 -12 11 3 -5 12 -2 15 10 10 9 -3 13 -11 9 -18
-3 -6 0 -5 8 2 12 11 12 14 -1 22 -8 5 -12 10 -8 10 3 0 14 3 24 7 13 5 15 3
10 -8 -4 -8 2 -4 13 9 11 12 23 22 28 21 16 -4 65 14 55 20 -6 3 0 11 12 17
21 10 23 9 19 -10 -3 -19 -3 -19 8 2 7 13 18 21 26 18 7 -3 12 -1 10 3 -1 5 3
9 8 9 6 0 9 -4 7 -10 -1 -5 2 -7 8 -3 6 3 7 11 4 17 -5 7 -2 9 8 5 9 -3 24 1
35 9 17 14 16 14 -4 4 -17 -8 -23 -8 -23 0 0 6 -5 8 -12 4 -7 -4 -8 -3 -4 4 4
6 13 9 21 5 9 -3 23 1 32 8 9 8 14 9 10 3 -4 -7 0 -14 8 -17 9 -4 12 -1 9 7
-3 7 3 19 12 27 10 8 15 9 11 2 -4 -6 -3 -14 3 -18 5 -3 10 2 10 12 1 17 1 17
14 0 12 -16 14 -16 20 -2 4 11 2 14 -6 9 -7 -4 -8 -3 -4 4 9 15 26 16 26 1z
m-490 -223 c0 -3 -4 -8 -10 -11 -5 -3 -10 -1 -10 4 0 6 5 11 10 11 6 0 10 -2
10 -4z m8072 -513 c-6 -2 -9 -10 -6 -15 4 -7 2 -8 -5 -4 -13 9 -5 26 12 25 9
0 8 -2 -1 -6z m-8827 -123 c3 -5 1 -10 -4 -10 -6 0 -11 5 -11 10 0 6 2 10 4
10 3 0 8 -4 11 -10z m-592 -235 c-3 -9 -8 -14 -10 -11 -3 3 -2 9 2 15 9 16 15
13 8 -4z m2221 -11 c3 -8 2 -12 -4 -9 -6 3 -10 10 -10 16 0 14 7 11 14 -7z
m-2004 -504 c0 -5 -2 -10 -4 -10 -3 0 -8 5 -11 10 -3 6 -1 10 4 10 6 0 11 -4
11 -10z m-423 -135 c0 -8 -4 -12 -9 -9 -5 3 -6 10 -3 15 9 13 12 11 12 -6z
m2920 -27 c-3 -8 -6 -5 -6 6 -1 11 2 17 5 13 3 -3 4 -12 1 -19z m5835 -50 c-7
-7 -12 -8 -12 -2 0 14 12 26 19 19 2 -3 -1 -11 -7 -17z m-8786 -203 c-1 -8 -5
-17 -8 -21 -5 -4 -4 16 1 34 3 9 9 -1 7 -13z m5349 -925 c3 -5 1 -10 -4 -10
-6 0 -11 5 -11 10 0 6 2 10 4 10 3 0 8 -4 11 -10z m280 -40 c3 -5 1 -10 -4
-10 -6 0 -11 5 -11 10 0 6 2 10 4 10 3 0 8 -4 11 -10z m-4857 -845 c-3 -3 -9
2 -12 12 -6 14 -5 15 5 6 7 -7 10 -15 7 -18z m7732 14 c0 8 3 12 6 8 10 -10
-6 -26 -21 -21 -8 4 -12 11 -9 16 4 6 10 5 15 -3 7 -12 9 -12 9 0z m-3198 -61
c-7 -7 -12 -8 -12 -2 0 14 12 26 19 19 2 -3 -1 -11 -7 -17z m-3807 -456 c-8
-8 -25 10 -19 20 4 6 9 5 15 -3 4 -7 6 -15 4 -17z m6995 0 c0 -12 -3 -12 -15
-2 -8 7 -15 13 -15 15 0 1 7 2 15 2 8 0 15 -7 15 -15z m-5920 -36 c0 -2 -6 -9
-14 -15 -11 -9 -16 -9 -22 0 -4 7 -3 9 4 5 6 -3 13 -2 17 4 6 10 15 14 15 6z
m-1075 -604 c-8 -8 -25 10 -19 20 4 6 9 5 15 -3 4 -7 6 -15 4 -17z m715 -234
c0 -4 -4 -8 -9 -8 -6 0 -12 4 -15 8 -3 5 1 9 9 9 8 0 15 -4 15 -9z m-976 -756
c3 -5 -1 -9 -9 -9 -8 0 -12 4 -9 9 3 4 7 8 9 8 2 0 6 -4 9 -8z"/>
<path d="M7655 10939 c-4 -6 -5 -12 -2 -15 2 -3 7 2 10 11 7 17 1 20 -8 4z"/>
<path d="M7146 10918 c3 -5 10 -6 15 -3 13 9 11 12 -6 12 -8 0 -12 -4 -9 -9z"/>
<path d="M7520 10920 c-12 -7 -10 -9 7 -7 12 0 19 5 17 9 -6 10 -6 10 -24 -2z"/>
<path d="M8445 10850 c-4 -6 1 -7 11 -3 13 5 15 3 9 -7 -5 -9 -4 -11 4 -6 6 4
9 12 6 17 -8 12 -22 12 -30 -1z"/>
<path d="M8873 10745 c0 -8 4 -15 9 -15 4 0 8 4 8 9 0 6 -4 12 -8 15 -5 3 -9
-1 -9 -9z"/>
<path d="M5849 10613 c-12 -16 -12 -17 2 -6 9 7 20 9 24 5 5 -4 5 -1 1 6 -9
16 -11 15 -27 -5z"/>
<path d="M9297 10599 c7 -7 15 -10 18 -7 3 3 -2 9 -12 12 -14 6 -15 5 -6 -5z"/>
<path d="M5395 10400 c-3 -5 -1 -10 4 -10 6 0 11 5 11 10 0 6 -2 10 -4 10 -3
0 -8 -4 -11 -10z"/>
<path d="M5117 10223 c-4 -3 -7 -11 -7 -17 0 -6 5 -5 12 2 6 6 9 14 7 17 -3 3
-9 2 -12 -2z"/>
<path d="M10093 10147 c0 -7 9 -14 20 -14 11 -1 18 -1 16 0 -2 2 -11 8 -20 15
-12 9 -16 9 -16 -1z"/>
<path d="M10580 9696 c0 -2 9 -6 20 -9 11 -3 18 -1 14 4 -5 9 -34 13 -34 5z"/>
<path d="M4430 9595 c0 -8 2 -15 4 -15 2 0 6 7 10 15 3 8 1 15 -4 15 -6 0 -10
-7 -10 -15z"/>
<path d="M4390 9559 c0 -5 5 -7 10 -4 6 3 10 8 10 11 0 2 -4 4 -10 4 -5 0 -10
-5 -10 -11z"/>
<path d="M11020 9040 c0 -5 5 -10 11 -10 5 0 7 5 4 10 -3 6 -8 10 -11 10 -2 0
-4 -4 -4 -10z"/>
<path d="M3900 8506 c0 -2 8 -10 18 -17 15 -13 16 -12 3 4 -13 16 -21 21 -21
13z"/>
<path d="M11207 8419 c7 -7 15 -10 18 -7 3 3 -2 9 -12 12 -14 6 -15 5 -6 -5z"/>
<path d="M11227 7979 c7 -7 15 -10 18 -7 3 3 -2 9 -12 12 -14 6 -15 5 -6 -5z"/>
<path d="M4085 7121 c-3 -5 -2 -12 3 -15 5 -3 9 1 9 9 0 17 -3 19 -12 6z"/>
<path d="M4240 6826 c0 -2 7 -9 15 -16 13 -11 14 -10 9 4 -5 14 -24 23 -24 12z"/>
<path d="M10715 6600 c-3 -5 -1 -10 4 -10 6 0 11 5 11 10 0 6 -2 10 -4 10 -3
0 -8 -4 -11 -10z"/>
<path d="M10470 6323 c0 -5 -10 -15 -22 -21 -13 -6 -18 -11 -12 -11 16 -1 50
27 41 35 -4 4 -7 3 -7 -3z"/>
<path d="M4805 6160 c10 -11 20 -20 23 -20 3 0 -3 9 -13 20 -10 11 -20 20 -23
20 -3 0 3 -9 13 -20z"/>
<path d="M10230 6099 c0 -5 5 -7 10 -4 6 3 10 8 10 11 0 2 -4 4 -10 4 -5 0
-10 -5 -10 -11z"/>
<path d="M10099 6018 c-5 -18 -6 -38 -1 -34 7 8 12 36 6 36 -2 0 -4 -1 -5 -2z"/>
<path d="M9890 5516 c0 -2 7 -7 16 -10 8 -3 12 -2 9 4 -6 10 -25 14 -25 6z"/>
<path d="M6116 5438 c3 -5 10 -6 15 -3 13 9 11 12 -6 12 -8 0 -12 -4 -9 -9z"/>
<path d="M9873 5393 c0 -9 4 -10 14 -2 7 6 13 12 13 14 0 1 -6 2 -13 2 -8 0
-14 -6 -14 -14z"/>
<path d="M7805 5239 c-4 -6 -5 -12 -2 -15 2 -3 7 2 10 11 7 17 1 20 -8 4z"/>
<path d="M7430 5219 c0 -5 5 -7 10 -4 6 3 10 8 10 11 0 2 -4 4 -10 4 -5 0 -10
-5 -10 -11z"/>
<path d="M8622 5194 c10 -10 20 -16 22 -13 3 3 -5 11 -17 18 -21 13 -21 12 -5
-5z"/>
<path d="M8886 4961 c-3 -4 3 -16 13 -25 15 -14 21 -15 27 -4 4 7 4 10 -1 6
-10 -10 -37 11 -29 23 3 5 3 9 0 9 -3 0 -7 -4 -10 -9z"/>
<path d="M9407 4469 c7 -7 15 -10 18 -7 3 3 -2 9 -12 12 -14 6 -15 5 -6 -5z"/>
<path d="M9893 4265 c0 -8 4 -12 9 -9 5 3 6 10 3 15 -9 13 -12 11 -12 -6z"/>
<path d="M3470 7820 c0 -5 5 -10 11 -10 5 0 7 5 4 10 -3 6 -8 10 -11 10 -2 0
-4 -4 -4 -10z"/>
<path d="M3516 7547 c3 -10 9 -15 12 -12 3 3 0 11 -7 18 -10 9 -11 8 -5 -6z"/>
<path d="M2649 7403 c-13 -16 -12 -17 4 -4 16 13 21 21 13 21 -2 0 -10 -8 -17
-17z"/>
<path d="M3755 6900 c3 -5 11 -10 16 -10 6 0 7 5 4 10 -3 6 -11 10 -16 10 -6
0 -7 -4 -4 -10z"/>
<path d="M3998 6473 c7 -3 16 -2 19 1 4 3 -2 6 -13 5 -11 0 -14 -3 -6 -6z"/>
<path d="M4256 6127 c3 -10 9 -15 12 -12 3 3 0 11 -7 18 -10 9 -11 8 -5 -6z"/>
<path d="M1812 6125 c4 -4 3 -14 -3 -22 -7 -8 -8 -13 -1 -13 15 0 23 28 9 36
-7 4 -9 4 -5 -1z"/>
<path d="M1789 5648 c-6 -21 -5 -37 2 -32 5 3 7 9 4 14 -3 4 1 11 7 13 10 4
10 6 1 6 -7 1 -13 0 -14 -1z"/>
<path d="M4854 5638 c-4 -7 -4 -10 1 -6 4 4 14 0 22 -10 13 -15 13 -15 3 6
-12 25 -16 27 -26 10z"/>
<path d="M5386 5318 c3 -5 10 -6 15 -3 13 9 11 12 -6 12 -8 0 -12 -4 -9 -9z"/>
<path d="M1995 4900 c3 -5 11 -10 16 -10 6 0 7 5 4 10 -3 6 -11 10 -16 10 -6
0 -7 -4 -4 -10z"/>
<path d="M2100 4726 c0 -2 7 -6 15 -10 8 -3 15 -1 15 4 0 6 -7 10 -15 10 -8 0
-15 -2 -15 -4z"/>
<path d="M7336 4574 c-5 -14 -4 -15 9 -4 17 14 19 20 6 20 -5 0 -12 -7 -15
-16z"/>
<path d="M7233 4454 c-13 -14 -18 -24 -11 -22 10 4 45 48 37 48 -2 0 -14 -12
-26 -26z"/>
<path d="M2300 4466 c0 -2 8 -10 18 -17 15 -13 16 -12 3 4 -13 16 -21 21 -21
13z"/>
<path d="M2347 4419 c7 -7 15 -10 18 -7 3 3 -2 9 -12 12 -14 6 -15 5 -6 -5z"/>
<path d="M7095 4320 c-3 -5 -1 -10 4 -10 6 0 11 5 11 10 0 6 -2 10 -4 10 -3 0
-8 -4 -11 -10z"/>
<path d="M2616 4187 c3 -10 9 -15 12 -12 3 3 0 11 -7 18 -10 9 -11 8 -5 -6z"/>
<path d="M6322 3799 c2 -7 -2 -13 -9 -14 -6 0 -14 -3 -18 -7 -4 -3 0 -5 9 -4
24 3 40 22 27 31 -7 3 -10 1 -9 -6z"/>
<path d="M6076 3707 c3 -10 9 -15 12 -12 3 3 0 11 -7 18 -10 9 -11 8 -5 -6z"/>
<path d="M4526 3473 c-6 -14 -5 -15 5 -6 7 7 10 15 7 18 -3 3 -9 -2 -12 -12z"/>
<path d="M5065 3470 c-3 -6 1 -7 9 -4 18 7 21 14 7 14 -6 0 -13 -4 -16 -10z"/>
<path d="M3359 2953 c-13 -16 -12 -17 4 -4 16 13 21 21 13 21 -2 0 -10 -8 -17
-17z"/>
<path d="M2883 2795 c0 -7 6 -11 14 -8 7 3 13 6 13 8 0 2 -6 5 -13 8 -8 3 -14
-1 -14 -8z"/>
<path d="M7215 11340 c3 -5 8 -10 11 -10 2 0 4 5 4 10 0 6 -5 10 -11 10 -5 0
-7 -4 -4 -10z"/>
<path d="M6607 11255 c3 -8 9 -12 14 -9 12 7 11 11 -5 17 -10 4 -13 1 -9 -8z"/>
<path d="M8667 11229 c7 -7 15 -10 18 -7 3 3 -2 9 -12 12 -14 6 -15 5 -6 -5z"/>
<path d="M6323 11195 c0 -8 4 -12 9 -9 5 3 6 10 3 15 -9 13 -12 11 -12 -6z"/>
<path d="M6160 11161 c0 -6 4 -13 10 -16 6 -3 7 1 4 9 -7 18 -14 21 -14 7z"/>
<path d="M6105 11140 c-3 -6 1 -7 9 -4 18 7 21 14 7 14 -6 0 -13 -4 -16 -10z"/>
<path d="M5766 11018 c3 -5 10 -6 15 -3 13 9 11 12 -6 12 -8 0 -12 -4 -9 -9z"/>
<path d="M9509 10963 c-13 -16 -12 -17 4 -4 16 13 21 21 13 21 -2 0 -10 -8
-17 -17z"/>
<path d="M5590 10956 c0 -2 7 -7 16 -10 8 -3 12 -2 9 4 -6 10 -25 14 -25 6z"/>
<path d="M9535 10940 c3 -5 8 -10 11 -10 2 0 4 5 4 10 0 6 -5 10 -11 10 -5 0
-7 -4 -4 -10z"/>
<path d="M5536 10922 c-3 -5 1 -9 9 -9 8 0 12 4 9 9 -3 4 -7 8 -9 8 -2 0 -6
-4 -9 -8z"/>
<path d="M9735 10860 c3 -5 8 -10 11 -10 2 0 4 5 4 10 0 6 -5 10 -11 10 -5 0
-7 -4 -4 -10z"/>
<path d="M5130 10720 c-9 -6 -10 -10 -3 -10 6 0 15 5 18 10 8 12 4 12 -15 0z"/>
<path d="M4946 10595 c-3 -9 -11 -13 -17 -9 -8 5 -9 3 -4 -5 6 -10 11 -9 23 3
9 8 13 18 10 21 -3 3 -8 -1 -12 -10z"/>
<path d="M4865 10540 c-3 -6 1 -7 9 -4 18 7 21 14 7 14 -6 0 -13 -4 -16 -10z"/>
<path d="M10450 10405 c0 -5 5 -17 10 -25 5 -8 10 -10 10 -5 0 6 -5 17 -10 25
-5 8 -10 11 -10 5z"/>
<path d="M10845 10040 c-3 -6 1 -7 9 -4 18 7 21 14 7 14 -6 0 -13 -4 -16 -10z"/>
<path d="M4281 10031 c-8 -5 -9 -11 -3 -15 5 -3 12 1 16 9 6 17 6 18 -13 6z"/>
<path d="M11100 9720 c6 -11 13 -20 16 -20 2 0 0 9 -6 20 -6 11 -13 20 -16 20
-2 0 0 -9 6 -20z"/>
<path d="M3900 9530 c-8 -5 -12 -12 -9 -15 4 -3 12 1 19 10 14 17 11 19 -10 5z"/>
<path d="M3840 9430 c-9 -6 -10 -10 -3 -10 6 0 15 5 18 10 8 12 4 12 -15 0z"/>
<path d="M11395 9220 c3 -5 8 -10 11 -10 2 0 4 5 4 10 0 6 -5 10 -11 10 -5 0
-7 -4 -4 -10z"/>
<path d="M3636 9022 c-3 -5 1 -9 9 -9 8 0 12 4 9 9 -3 4 -7 8 -9 8 -2 0 -6 -4
-9 -8z"/>
<path d="M3483 8363 c4 -3 1 -13 -6 -22 -11 -14 -10 -14 5 -2 16 12 16 31 1
31 -4 0 -3 -3 0 -7z"/>
<path d="M3120 8140 c-8 -5 -12 -12 -9 -15 4 -3 12 1 19 10 14 17 11 19 -10 5z"/>
<path d="M11590 7519 c0 -5 5 -7 10 -4 6 3 10 8 10 11 0 2 -4 4 -10 4 -5 0
-10 -5 -10 -11z"/>
<path d="M1941 7271 c-8 -5 -9 -11 -3 -15 5 -3 12 1 16 9 6 17 6 18 -13 6z"/>
<path d="M11345 6840 c-3 -6 1 -7 9 -4 18 7 21 14 7 14 -6 0 -13 -4 -16 -10z"/>
<path d="M11186 6571 c-3 -5 2 -15 12 -22 15 -12 16 -12 5 2 -7 9 -10 19 -6
22 3 4 4 7 0 7 -3 0 -8 -4 -11 -9z"/>
<path d="M11166 6541 c-3 -5 2 -15 12 -22 15 -12 16 -12 5 2 -7 9 -10 19 -6
22 3 4 4 7 0 7 -3 0 -8 -4 -11 -9z"/>
<path d="M10786 6074 c-9 -24 -2 -26 12 -4 7 11 8 20 3 20 -5 0 -12 -7 -15
-16z"/>
<path d="M10526 5841 c-3 -5 2 -15 12 -22 15 -12 16 -12 5 2 -7 9 -10 19 -6
22 3 4 4 7 0 7 -3 0 -8 -4 -11 -9z"/>
<path d="M1469 4883 c-13 -16 -12 -17 4 -4 16 13 21 21 13 21 -2 0 -10 -8 -17
-17z"/>
<path d="M1584 4842 c3 -5 0 -13 -6 -15 -9 -4 -10 -6 -1 -6 17 -1 25 16 12 25
-7 4 -9 3 -5 -4z"/>
<path d="M8009 4763 c-13 -16 -12 -17 4 -4 16 13 21 21 13 21 -2 0 -10 -8 -17
-17z"/>
<path d="M1851 4364 c0 -11 3 -14 6 -6 3 7 2 16 -1 19 -3 4 -6 -2 -5 -13z"/>
<path d="M7556 4242 c-3 -5 1 -9 9 -9 8 0 12 4 9 9 -3 4 -7 8 -9 8 -2 0 -6 -4
-9 -8z"/>
<path d="M7353 3995 c0 -8 4 -12 9 -9 4 3 8 9 8 15 0 5 -4 9 -8 9 -5 0 -9 -7
-9 -15z"/>
<path d="M2453 3780 c14 -11 28 -20 32 -20 4 0 -4 9 -18 20 -14 11 -28 20 -32
20 -4 0 4 -9 18 -20z"/>
<path d="M6967 3709 c7 -7 15 -10 18 -7 3 3 -2 9 -12 12 -14 6 -15 5 -6 -5z"/>
<path d="M9691 3684 c0 -11 3 -14 6 -6 3 7 2 16 -1 19 -3 4 -6 -2 -5 -13z"/>
<path d="M6750 3560 c0 -5 5 -10 11 -10 5 0 7 5 4 10 -3 6 -8 10 -11 10 -2 0
-4 -4 -4 -10z"/>
<path d="M10145 3391 c-6 -11 9 -23 19 -14 9 9 7 23 -3 23 -6 0 -12 -4 -16 -9z"/>
<path d="M6270 3341 c0 -6 4 -13 10 -16 6 -3 7 1 4 9 -7 18 -14 21 -14 7z"/>
<path d="M5915 3220 c-3 -5 -1 -10 4 -10 6 0 11 5 11 10 0 6 -2 10 -4 10 -3 0
-8 -4 -11 -10z"/>
<path d="M5436 3108 c3 -5 10 -6 15 -3 13 9 11 12 -6 12 -8 0 -12 -4 -9 -9z"/>
<path d="M4515 3070 c-3 -5 -1 -10 4 -10 6 0 11 5 11 10 0 6 -2 10 -4 10 -3 0
-8 -4 -11 -10z"/>
<path d="M4955 3070 c-3 -5 -1 -10 4 -10 6 0 11 5 11 10 0 6 -2 10 -4 10 -3 0
-8 -4 -11 -10z"/>
<path d="M4930 3006 c0 -2 7 -7 16 -10 8 -3 12 -2 9 4 -6 10 -25 14 -25 6z"/>
<path d="M3675 2731 c-3 -5 -2 -12 3 -15 5 -3 9 1 9 9 0 17 -3 19 -12 6z"/>
<path d="M3435 2501 c-3 -5 -2 -12 3 -15 5 -3 9 1 9 9 0 17 -3 19 -12 6z"/>
<path d="M2481 2026 c-9 -11 -9 -16 1 -22 7 -4 10 -4 6 1 -4 4 -3 14 3 22 6 7
9 13 6 13 -2 0 -10 -6 -16 -14z"/>
</g>
</svg>
